<svg width="70" height="70" viewBox="0 0 70 70" fill="none" xmlns="http://www.w3.org/2000/svg">
<path d="M68.3808 28.1288C67.8799 27.8244 67.2513 27.8837 66.816 28.2752C65.7634 29.2242 64.6958 30.1017 63.5935 30.9241C63.8243 30.1567 64.0256 29.401 64.1976 28.6608C66.1426 27.5419 67.6988 25.7181 68.7178 23.3565C69.6578 21.177 70.1053 18.5975 69.9787 16.0933C69.9494 15.5064 69.5456 15.0204 68.9742 14.8826C68.4011 14.7453 67.819 14.9958 67.5253 15.5069C66.8102 16.7502 66.0572 17.9278 65.2507 19.0611C65.2411 18.104 65.1973 17.1742 65.1193 16.2775C65.1193 16.2562 65.1183 16.2354 65.1167 16.214C64.895 13.2671 64.3519 10.3132 63.5022 7.43461C63.342 6.89147 62.7722 6.58065 62.2285 6.7414C61.6854 6.90162 61.3751 7.47199 61.5353 8.01513C62.0587 9.78821 62.4597 11.5901 62.7348 13.4011C61.7131 12.4211 60.66 11.5041 59.5545 10.631C59.108 10.2779 58.4885 10.2523 58.0132 10.5663C57.5379 10.8804 57.3194 11.4598 57.4684 12.0083C58.6289 16.2727 60.5654 19.914 63.083 22.5736C63.0248 23.3218 62.9383 24.0908 62.8245 24.8775C62.1441 23.6855 61.4178 22.5453 60.6317 21.4333C60.3064 20.9735 59.7248 20.7717 59.1844 20.9308C58.6444 21.09 58.2658 21.5738 58.2423 22.1351C58.1157 25.1424 58.4132 29.5291 60.4965 33.6013C60.2263 34.2833 59.9251 34.9765 59.594 35.6783C59.2874 34.348 58.9221 33.0545 58.4911 31.7722C58.3122 31.2403 57.815 30.8803 57.2537 30.8755C57.25 30.8755 57.2463 30.8755 57.2425 30.8755C56.6866 30.8755 56.1899 31.2258 56.004 31.7498C54.6182 35.6623 54.2112 39.7489 54.8446 43.318C54.3858 43.8953 53.8934 44.4742 53.3701 45.0515C53.4689 43.6865 53.4988 42.3385 53.4608 40.982C53.4454 40.4207 53.0747 39.931 52.5385 39.7628C52.0029 39.5945 51.4202 39.7847 51.0875 40.2354C48.7152 43.452 47.1355 47.0906 46.5832 50.5785H23.4163C22.8646 47.0906 21.2844 43.452 18.9121 40.2354C18.5794 39.7852 17.9972 39.5945 17.4616 39.7628C16.9254 39.9305 16.5547 40.4207 16.5387 40.982C16.5013 42.3385 16.5312 43.6865 16.63 45.0521C16.1067 44.4742 15.6143 43.8953 15.155 43.318C15.7884 39.7494 15.3814 35.6628 13.9961 31.7503C13.8102 31.2258 13.3135 30.8755 12.7571 30.8755C12.7538 30.8755 12.7501 30.8755 12.7464 30.8755C12.1851 30.8803 11.6873 31.2403 11.509 31.7722C11.078 33.0545 10.7121 34.348 10.4061 35.6783C10.0745 34.9765 9.77327 34.2833 9.50357 33.6013C11.5869 29.5286 11.8844 25.1424 11.7578 22.1356C11.7343 21.5743 11.3557 21.0905 10.8158 20.9313C10.2753 20.7717 9.6937 20.9741 9.36899 21.4333C8.58285 22.5453 7.856 23.686 7.17561 24.878C7.06186 24.0908 6.9748 23.3218 6.91659 22.5741C9.43468 19.9145 11.3712 16.2727 12.5317 12.0088C12.6807 11.4603 12.4623 10.8809 11.9869 10.5669C11.5116 10.2528 10.8921 10.2785 10.4456 10.6315C9.34015 11.5047 8.28699 12.4216 7.26533 13.4011C7.54037 11.5907 7.94145 9.78821 8.46483 8.01567C8.62504 7.47253 8.31476 6.90215 7.77162 6.74194C7.22902 6.58119 6.65811 6.89201 6.49789 7.43461C5.6482 10.3132 5.10507 13.2671 4.88343 16.214C4.88183 16.2359 4.88076 16.2573 4.88076 16.2786C4.80279 17.1748 4.75846 18.1046 4.74938 19.0616C3.94242 17.9278 3.1894 16.7502 2.47483 15.5069C2.1811 14.9963 1.59844 14.7453 1.02593 14.8831C0.454485 15.0204 0.0507364 15.5069 0.0213632 16.0933C-0.105743 18.598 0.342332 21.1775 1.28228 23.3565C2.30126 25.7186 3.85751 27.5424 5.80255 28.6608C5.97451 29.401 6.17585 30.1567 6.40603 30.9241C5.30427 30.1022 4.23722 29.2242 3.18406 28.2757C2.74827 27.8837 2.11968 27.825 1.61927 28.1288C1.11992 28.4327 0.882799 29.0159 1.0302 29.582C2.15012 33.8903 5.39933 38.5985 10.1888 39.6837C10.5669 40.338 10.9776 40.9986 11.4176 41.6613C10.1279 41.1983 8.85309 40.6739 7.57081 40.0789C7.04049 39.8327 6.42259 39.9609 6.03379 40.3978C5.64553 40.8336 5.58999 41.4605 5.89494 41.9577C8.11288 45.5749 12.2972 48.9817 16.9414 48.9817C17.1604 48.9817 17.3809 48.9742 17.602 48.9587C18.1874 49.5045 18.809 50.0455 19.4638 50.5791H19.1375C18.0453 50.5791 17.1572 51.4672 17.1572 52.5588V54.2293H12.4804C11.7925 54.2293 11.1939 54.6459 10.9551 55.291C10.7164 55.9357 10.8991 56.6417 11.4208 57.0898L13.5362 58.905L11.4208 60.7208C10.8991 61.1684 10.7164 61.8749 10.9551 62.5195C11.1939 63.1641 11.7925 63.5807 12.4804 63.5807H22.4326C23.4772 63.5807 24.3264 62.7316 24.3264 61.6869V59.9304H45.6732V61.6869C45.6732 62.7316 46.5229 63.5807 47.567 63.5807H57.5197C58.207 63.5807 58.8057 63.1641 59.0444 62.5195C59.2837 61.8749 59.101 61.1684 58.5787 60.7203L56.4639 58.905L58.5793 57.0898C59.101 56.6417 59.2837 55.9357 59.0444 55.2905C58.8057 54.6459 58.207 54.2293 57.5197 54.2293H52.8429V52.5588C52.8429 51.4672 51.9548 50.5791 50.8627 50.5791H50.5363C51.1911 50.0455 51.8127 49.5045 52.3981 48.9587C52.6192 48.9742 52.8397 48.9817 53.0587 48.9817C57.7023 48.9817 61.8872 45.5744 64.1052 41.9577C64.4101 41.4605 64.3546 40.8336 63.9663 40.3972C63.5775 39.9604 62.9591 39.8322 62.4293 40.0784C61.147 40.6739 59.8722 41.1983 58.5825 41.6613C59.0225 40.998 59.4332 40.338 59.8113 39.6832C64.6008 38.5985 67.8494 33.8897 68.9699 29.5815C69.1173 29.0159 68.8802 28.4322 68.3808 28.1288ZM21.0403 49.2156C20.2916 48.6175 19.5877 48.0092 18.9334 47.3955C18.7545 46.0593 18.6434 44.7562 18.5981 43.4611C19.7116 45.3261 20.5415 47.2834 21.0403 49.2156ZM12.7528 34.7416C13.2655 36.8319 13.4748 38.9222 13.3707 40.8907C12.842 40.1131 12.3565 39.3409 11.9186 38.5777C12.1424 37.2564 12.4185 35.9854 12.7528 34.7416ZM9.69423 24.6543C9.57513 26.8316 9.16872 28.907 8.50008 30.7591C8.21809 29.856 7.9767 28.97 7.7791 28.108C8.37778 26.9005 9.0117 25.7566 9.69423 24.6543ZM9.79143 13.8567C9.00423 15.9924 7.99486 17.9027 6.7975 19.523C6.79643 18.5468 6.83168 17.6004 6.90377 16.6909C7.84265 15.6815 8.79915 14.7432 9.79143 13.8567ZM2.19017 18.9543C3.02117 20.2141 3.9061 21.4179 4.861 22.5875C4.93363 23.576 5.05326 24.5982 5.21775 25.646C3.49702 23.9247 2.52877 21.4328 2.19017 18.9543ZM3.94295 31.612C5.10453 32.5418 6.29655 33.4043 7.54197 34.2176C7.89606 35.1239 8.30247 36.0484 8.75749 36.9841C6.63407 35.8689 4.99078 33.8246 3.94295 31.612ZM9.26378 43.0397C10.6443 43.5877 12.0334 44.0641 13.4577 44.4785C14.0644 45.2481 14.7261 46.0198 15.4386 46.7867C13.078 46.3312 10.9092 44.8513 9.26378 43.0397ZM22.2756 61.5299H13.6265L15.2474 60.1387C15.6073 59.8289 15.814 59.3798 15.814 58.9045C15.814 58.4297 15.6073 57.98 15.2468 57.6708L13.6265 56.2796H17.1572V57.9501C17.1572 59.0417 18.0458 59.9299 19.1375 59.9299H22.2761V61.5299H22.2756ZM52.8429 57.9501V56.2796H56.3736L54.7527 57.6708C54.3923 57.98 54.1861 58.4297 54.1861 58.9045C54.1861 59.3798 54.3928 59.8295 54.7527 60.1387L56.3736 61.5299H47.724V59.9299H50.8627C51.9548 59.9299 52.8429 59.0417 52.8429 57.9501ZM50.7922 57.8791H19.2079V52.6293H50.7922V57.8791ZM67.8099 18.9543C67.4713 21.4328 66.5031 23.9247 64.7824 25.646C64.9468 24.5982 65.0659 23.576 65.1391 22.588C66.094 21.4179 66.9789 20.2146 67.8099 18.9543ZM63.0963 16.6909C63.1684 17.6004 63.2037 18.5468 63.2021 19.523C62.0053 17.9027 60.9953 15.9924 60.2081 13.8572C61.201 14.7432 62.1575 15.6815 63.0963 16.6909ZM62.2205 28.108C62.0234 28.9694 61.782 29.856 61.5 30.7591C60.8314 28.907 60.425 26.8321 60.3059 24.6543C60.9884 25.7566 61.6223 26.9005 62.2205 28.108ZM57.2468 34.741C57.5816 35.9854 57.8578 37.2564 58.0815 38.5777C57.6436 39.3403 57.1581 40.1131 56.6294 40.8907C56.5247 38.9222 56.7346 36.8313 57.2468 34.741ZM51.4021 43.4611C51.3567 44.7567 51.245 46.0593 51.0667 47.3961C50.4124 48.0092 49.7086 48.6175 48.9598 49.2156C49.4586 47.2828 50.2885 45.3266 51.4021 43.4611ZM54.5615 46.7867C55.2734 46.0193 55.9357 45.2481 56.5418 44.4785C57.9667 44.0635 59.3553 43.5877 60.7358 43.0397C59.0904 44.8513 56.9221 46.3317 54.5615 46.7867ZM61.2426 36.9841C61.6971 36.0484 62.1041 35.1239 62.4581 34.2171C63.7036 33.4043 64.8956 32.5418 66.0566 31.612C65.0088 33.8246 63.366 35.8689 61.2426 36.9841Z" fill="#668997"/>
<path d="M18.2707 23.2358L25.9531 29.3705L25.4228 31.2974C25.2722 31.8437 25.5931 32.4082 26.1389 32.5583C26.2303 32.5834 26.3221 32.5957 26.4118 32.5957C26.8621 32.5957 27.2749 32.2966 27.3999 31.8421L28.1102 29.2632C28.2191 28.868 28.0818 28.4455 27.7614 28.1897L19.5503 21.6336C19.5198 21.609 19.428 21.5359 19.476 21.3874C19.5246 21.2384 19.6421 21.2331 19.6811 21.2315L30.1775 20.7535C30.5871 20.7348 30.946 20.4736 31.0907 20.0902L34.7885 10.255C34.8024 10.2186 34.8441 10.1081 35 10.1081C35.1565 10.1081 35.1976 10.2186 35.2115 10.255L36.2262 12.953C36.4254 13.4833 37.0166 13.7514 37.547 13.5517C38.0767 13.3525 38.3448 12.7613 38.1456 12.231L37.1309 9.53292C36.7939 8.63677 35.9576 8.05731 35 8.05731C34.0425 8.05731 33.2061 8.63677 32.8691 9.53292L29.409 18.7353L19.5877 19.1823C18.6312 19.2261 17.8215 19.8424 17.5257 20.7535C17.2298 21.6641 17.5225 22.6387 18.2707 23.2358Z" fill="#668997"/>
<path d="M37.673 16.8009L38.9094 20.0902C39.0541 20.4736 39.413 20.7348 39.8226 20.7535L50.3195 21.2314C50.358 21.233 50.4755 21.2384 50.5241 21.3874C50.5721 21.5359 50.4803 21.6096 50.4498 21.6336L42.2392 28.1897C41.9182 28.4455 41.781 28.8679 41.8899 29.2632L44.6793 39.3937C44.6895 39.4311 44.7204 39.5448 44.5944 39.6367C44.4673 39.728 44.369 39.6634 44.337 39.6426L35.5646 33.8593C35.2222 33.6334 34.7779 33.6339 34.4356 33.8593L25.6626 39.6426C25.6305 39.6634 25.5323 39.728 25.4057 39.6367C25.2791 39.5448 25.3106 39.4311 25.3208 39.3937L26.3099 35.8C26.4605 35.2537 26.1395 34.6897 25.5937 34.5391C25.0479 34.389 24.4834 34.7095 24.3328 35.2558L23.3437 38.8495C23.0895 39.7724 23.4254 40.7326 24.2003 41.2955C24.6025 41.5876 25.0692 41.7345 25.5376 41.7345C25.9718 41.7345 26.4065 41.6079 26.7916 41.3542L35.0001 35.9432L43.2085 41.3542C44.008 41.8813 45.0249 41.8584 45.7998 41.2955C46.5742 40.7326 46.9106 39.7724 46.6564 38.8495L44.0465 29.3705L51.7294 23.2358C52.4776 22.6382 52.7698 21.664 52.4739 20.7535C52.178 19.8424 51.3689 19.2261 50.4124 19.1823L40.5911 18.7353L39.5924 16.0789C39.3932 15.5491 38.8015 15.2804 38.2717 15.4802C37.7419 15.6794 37.4738 16.2711 37.673 16.8009Z" fill="#668997"/>
</svg>
