<svg width="70" height="70" viewBox="0 0 70 70" fill="none" xmlns="http://www.w3.org/2000/svg">
<path d="M61.1084 29.9307L59.6227 26.6612C59.5388 26.4769 59.5388 26.2654 59.6227 26.0812L61.1084 22.8112C61.5971 21.735 61.3455 20.4699 60.482 19.6624L57.8582 17.2105C57.7102 17.0722 57.6296 16.8767 57.6365 16.6743L57.7572 13.0849C57.7973 11.9036 57.0806 10.8307 55.974 10.4157L52.6116 9.15373C52.422 9.0827 52.2725 8.93317 52.2014 8.74358L50.94 5.38116C50.5245 4.27459 49.4478 3.55682 48.2702 3.59794L44.6814 3.71917C44.4763 3.72505 44.2835 3.64494 44.1452 3.49701L41.6928 0.873187C40.8858 0.00961807 39.6201 -0.241922 38.544 0.247273L35.2745 1.73248C35.0903 1.81633 34.8788 1.8158 34.6945 1.73248L31.4245 0.247273C30.3484 -0.241922 29.0832 0.00961807 28.2757 0.873187L25.8238 3.49701C25.6855 3.64494 25.4911 3.72612 25.2876 3.71917L21.6983 3.59794C20.5164 3.55896 19.4445 4.27513 19.029 5.38169L17.7671 8.74411C17.696 8.9337 17.5465 9.08324 17.3569 9.15427L13.9945 10.4157C12.8879 10.8312 12.1712 11.9036 12.2113 13.0849L12.3325 16.6743C12.3389 16.8767 12.2583 17.0722 12.1103 17.2105L9.48705 19.6624C8.62348 20.4699 8.3714 21.735 8.8606 22.8112L10.3458 26.0807C10.4297 26.2649 10.4297 26.4764 10.3458 26.6612L8.8606 29.9307C8.3714 31.0068 8.62295 32.272 9.48651 33.0795L12.1103 35.5318C12.2583 35.6702 12.3389 35.8651 12.3325 36.0675L12.2113 39.6569C12.1712 40.8382 12.8879 41.9112 13.9945 42.3261L17.3569 43.5876C17.5465 43.6591 17.696 43.8087 17.7671 43.9977L19.029 47.3601C19.0702 47.4701 19.1177 47.5764 19.1716 47.6779L10.7367 60.679C10.3277 61.3092 10.3244 62.0937 10.7282 62.7271C11.1314 63.3605 11.8433 63.6894 12.5872 63.5853L19.4536 62.6256C19.5455 62.6128 19.6368 62.6555 19.6854 62.7346L23.6144 69.1005C23.9573 69.6559 24.5517 69.9924 25.2043 69.9993C25.2118 69.9993 25.2188 69.9999 25.2262 69.9999C25.8703 69.9999 26.4631 69.6784 26.814 69.1368L37.8236 52.1672L38.544 52.4945C39.6201 52.9832 40.8853 52.7317 41.6928 51.8681L44.1452 49.2448C44.2835 49.0969 44.48 49.0157 44.6808 49.0226L48.2702 49.1439C49.4521 49.1839 50.524 48.4672 50.9394 47.3601L52.2009 43.9977C52.2719 43.8081 52.422 43.6586 52.611 43.5876L55.9735 42.3261C57.0806 41.9106 57.7973 40.8377 57.7572 39.6569L57.636 36.0675C57.629 35.8651 57.7102 35.6696 57.8582 35.5313L60.4814 33.0789C61.3455 32.272 61.5971 31.0068 61.1084 29.9307ZM25.2289 67.8124L21.4307 61.6579C20.9548 60.8867 20.0683 60.4696 19.17 60.5946L12.6444 61.5068L20.7524 49.0098C21.0515 49.1076 21.3709 49.1546 21.6983 49.1439L25.2876 49.0226C25.4911 49.0157 25.6855 49.0969 25.8238 49.2448L28.2762 51.8681C28.8087 52.4379 29.5409 52.7413 30.2864 52.7413C30.6704 52.7413 31.0587 52.6606 31.4245 52.4945L34.6945 51.0093C34.8788 50.9255 35.0903 50.9255 35.2745 51.0093L35.9357 51.3095L25.2289 67.8124ZM59.0817 31.5809L56.4579 34.0333C55.8773 34.5759 55.5601 35.3428 55.5868 36.1369L55.708 39.7258C55.7182 40.027 55.5355 40.3004 55.2536 40.4062L51.8911 41.6676C51.1472 41.9469 50.5603 42.5333 50.2815 43.2773L49.0195 46.6397C48.9138 46.9217 48.6382 47.1043 48.3397 47.0942L44.7503 46.9729C43.9567 46.9468 43.1892 47.264 42.6472 47.8445L40.1948 50.4678C39.9892 50.6878 39.6666 50.7525 39.3921 50.6275L36.1226 49.1423C35.3995 48.8133 34.5695 48.8133 33.8459 49.1423L30.5764 50.6275C30.3019 50.7519 29.9799 50.6878 29.7743 50.4678L27.3219 47.8445C26.8006 47.2864 26.0722 46.9719 25.3117 46.9719C25.2807 46.9719 25.2497 46.9724 25.2182 46.9735L21.6294 47.0947C21.3281 47.1049 21.0547 46.9222 20.949 46.6402L19.6875 43.2778C19.4082 42.5339 18.8213 41.9469 18.0779 41.6682L14.7155 40.4062C14.4335 40.3004 14.2508 40.027 14.261 39.7263L14.3817 36.1369C14.4089 35.3428 14.0911 34.5759 13.5106 34.0338L10.8873 31.5809C10.6673 31.3753 10.6027 31.0533 10.7277 30.7787L12.2129 27.5093C12.5419 26.7861 12.5419 25.9562 12.2129 25.2326L10.7277 21.9631C10.6032 21.6891 10.6673 21.3665 10.8873 21.1609L13.5106 18.7085C14.0911 18.1659 14.4089 17.399 14.3822 16.6049L14.261 13.0155C14.2508 12.7148 14.4335 12.4414 14.7155 12.3356L18.0779 11.0742C18.8218 10.7949 19.4082 10.2085 19.6875 9.46455L20.949 6.10213C21.0547 5.82015 21.3271 5.63804 21.6294 5.64765L25.2188 5.76835C26.014 5.79665 26.7793 5.47782 27.3219 4.8973L29.7743 2.27402C29.9799 2.05345 30.3024 1.9899 30.5764 2.11433L33.8459 3.59955C34.5695 3.92799 35.3989 3.92799 36.1226 3.59955L39.3921 2.11433C39.6666 1.9899 39.9892 2.05399 40.1948 2.27402L42.6472 4.8973C43.1892 5.47782 43.9583 5.79719 44.7503 5.76888L48.3397 5.64765C48.6366 5.63804 48.9138 5.82015 49.0195 6.10213L50.2815 9.46455C50.5603 10.2085 51.1472 10.7949 51.8911 11.0742L55.2536 12.3356C55.5355 12.4419 55.7182 12.7148 55.708 13.016L55.5868 16.6054C55.5601 17.3996 55.8773 18.1659 56.4579 18.7085L59.0817 21.1609C59.3017 21.3665 59.3658 21.6891 59.2414 21.9631L57.7556 25.2326C57.4272 25.9562 57.4272 26.7861 57.7556 27.5093L59.2408 30.7787C59.3658 31.0533 59.3017 31.3753 59.0817 31.5809Z" fill="white"/>
<path d="M52.6955 27.4169C52.1331 27.3528 51.6242 27.7549 51.5585 28.3173C50.5828 36.7207 43.4579 43.0573 34.9845 43.0573C26.5064 43.0573 19.381 36.7164 18.4095 28.3082C18.3444 27.7458 17.836 27.341 17.2731 27.4072C16.7107 27.4724 16.307 27.9808 16.3721 28.5437C17.4632 37.9869 25.465 45.1081 34.9845 45.1081C44.4988 45.1081 52.5 37.9912 53.5959 28.5533C53.6611 27.991 53.2579 27.482 52.6955 27.4169Z" fill="white"/>
<path d="M34.9846 7.63379C25.4618 7.63379 17.4595 14.7576 16.371 24.2045C16.3064 24.7669 16.7102 25.2753 17.2725 25.3405C17.3126 25.3453 17.3521 25.3474 17.3911 25.3474C17.9049 25.3474 18.3481 24.9618 18.4085 24.439C19.3778 16.0276 26.5037 9.68457 34.9846 9.68457C43.4633 9.68457 50.5892 16.026 51.5596 24.4352C51.6247 24.9976 52.1326 25.4014 52.696 25.3362C53.2589 25.2716 53.6622 24.7626 53.597 24.2003C52.507 14.756 44.5052 7.63379 34.9846 7.63379Z" fill="white"/>
<path d="M52.626 50.4972C52.3179 50.0219 51.6824 49.8868 51.2076 50.1949C50.7323 50.5031 50.5971 51.1381 50.9053 51.6134L57.3241 61.5068L50.799 60.5952C49.9013 60.4697 49.0137 60.8868 48.5384 61.6579L44.7396 67.8124L38.0906 57.5644C37.7824 57.0891 37.1474 56.954 36.6727 57.2621C36.1974 57.5703 36.0622 58.2053 36.3704 58.6806L43.1545 69.1369C43.5059 69.6784 44.0982 69.9999 44.7423 69.9999H44.7642C45.4168 69.9924 46.0112 69.6565 46.3546 69.1011L50.2831 62.7346C50.3323 62.6556 50.4236 62.6128 50.5149 62.6257L57.3813 63.5854C58.1247 63.69 58.8371 63.3605 59.2409 62.7271C59.6441 62.0937 59.6409 61.3092 59.2323 60.6796L52.626 50.4972Z" fill="white"/>
</svg>
