<svg width="70" height="70" viewBox="0 0 70 70" fill="none" xmlns="http://www.w3.org/2000/svg">
<path d="M67.1385 29.4949C65.2832 28.1924 64.6301 25.7539 65.5855 23.6983C66.5217 21.6833 66.4218 19.4242 65.311 17.5C64.2001 15.5758 62.2935 14.3597 60.0804 14.1632C57.8219 13.9629 56.0371 12.1781 55.8368 9.91959C55.6403 7.70645 54.4242 5.79987 52.5 4.68903C50.5758 3.57819 48.3167 3.47832 46.3017 4.41452C44.2456 5.36995 41.8076 4.7168 40.5051 2.86148C39.2281 1.04301 37.2217 0 35 0C32.7783 0 30.7719 1.04301 29.4949 2.86148C28.1924 4.7168 25.7539 5.36995 23.6983 4.41452C21.6833 3.47778 19.4242 3.57819 17.5 4.68903C15.5758 5.79987 14.3597 7.70645 14.1632 9.91959C13.9629 12.1781 12.1781 13.9629 9.91959 14.1632C7.70645 14.3597 5.79987 15.5758 4.68903 17.5C3.57819 19.4242 3.47832 21.6833 4.41452 23.6983C5.37048 25.7544 4.7168 28.1924 2.86148 29.4949C1.04301 30.7719 0 32.7783 0 35C0 37.2217 1.04301 39.2281 2.86148 40.5051C4.7168 41.8076 5.36995 44.2461 4.41452 46.3017C3.47832 48.3167 3.57819 50.5758 4.68903 52.5C5.79987 54.4242 7.70645 55.6403 9.91959 55.8368C12.1781 56.0371 13.9629 57.8219 14.1632 60.0804C14.3597 62.2935 15.5758 64.2001 17.5 65.311C19.4242 66.4218 21.6833 66.5217 23.6983 65.5855C25.7544 64.6301 28.1924 65.2832 29.4949 67.1385C30.7719 68.957 32.7783 70 35 70C37.2217 70 39.2281 68.957 40.5051 67.1385C41.8076 65.2832 44.2461 64.6301 46.3017 65.5855C48.3167 66.5217 50.5758 66.4218 52.5 65.311C54.4242 64.2001 55.6403 62.2935 55.8368 60.0804C56.0371 57.8219 57.8219 56.0371 60.0804 55.8368C62.2935 55.6403 64.2001 54.4242 65.311 52.5C66.4218 50.5758 66.5217 48.3167 65.5855 46.3017C64.6295 44.2456 65.2832 41.8076 67.1385 40.5051C68.957 39.2281 70 37.2217 70 35C70 32.7783 68.957 30.7719 67.1385 29.4949ZM65.9604 38.8265C63.2906 40.7005 62.3512 44.2082 63.7259 47.1664C64.3764 48.5667 64.3069 50.1373 63.5347 51.4746C62.7625 52.8119 61.4375 53.6573 59.8994 53.794C56.6502 54.0824 54.0824 56.6502 53.794 59.8994C53.6573 61.4375 52.8119 62.7625 51.4746 63.5347C50.1373 64.3069 48.5667 64.3764 47.1664 63.7259C44.2077 62.3507 40.7005 63.2906 38.8265 65.9604C37.9389 67.2245 36.5445 67.9492 35 67.9492C33.4555 67.9492 32.0611 67.2245 31.1735 65.9604C29.8784 64.1158 27.8036 63.0973 25.6695 63.0973C24.7146 63.0973 23.7479 63.3008 22.8336 63.7259C21.4333 64.3769 19.8627 64.3069 18.5254 63.5352C17.1881 62.763 16.3427 61.4375 16.206 59.8994C15.9176 56.6502 13.3498 54.0824 10.1006 53.794C8.56255 53.6578 7.23755 52.8124 6.4653 51.4751C5.69305 50.1373 5.62363 48.5672 6.27411 47.1664C7.64931 44.2082 6.70937 40.7011 4.03961 38.8265C2.7755 37.9389 2.05078 36.5445 2.05078 35C2.05078 33.4555 2.7755 32.0611 4.03961 31.1735C6.70937 29.2995 7.64877 25.7918 6.27411 22.8336C5.62363 21.4333 5.69305 19.8627 6.4653 18.5254C7.23755 17.1881 8.56255 16.3427 10.1006 16.206C13.3498 15.9176 15.9176 13.3498 16.206 10.1006C16.3427 8.56255 17.1881 7.23755 18.5254 6.4653C19.8627 5.69305 21.4333 5.62363 22.8336 6.27411C25.7918 7.64877 29.2989 6.70883 31.1735 4.03961C32.0611 2.7755 33.4555 2.05078 35 2.05078C36.5445 2.05078 37.9389 2.7755 38.8265 4.03961L39.6655 3.45055L38.8265 4.03961C40.7005 6.70937 44.2082 7.64931 47.1664 6.27464C48.5667 5.62363 50.1373 5.69305 51.4746 6.4653C52.8119 7.23755 53.6573 8.56255 53.794 10.1012C54.0824 13.3498 56.6502 15.9176 59.8994 16.206C61.4375 16.3427 62.7625 17.1881 63.5347 18.5254C64.3069 19.8627 64.3764 21.4333 63.7259 22.8336C62.3507 25.7918 63.2906 29.2995 65.9604 31.1735C67.2245 32.0611 67.9492 33.4555 67.9492 35C67.9492 36.5445 67.2245 37.9389 65.9604 38.8265Z" fill="white"/>
<path d="M61.0802 36.0554C60.5157 36.01 60.0222 36.4324 59.9774 36.9969C59.4839 43.2603 56.6667 49.0735 52.045 53.3652C47.3982 57.6799 41.3451 60.0559 35 60.0559C28.6554 60.0559 22.6019 57.6799 17.9556 53.3652C13.3333 49.0735 10.5161 43.2603 10.0227 36.9969C9.97834 36.4324 9.48381 36.0089 8.91984 36.0554C8.35534 36.0997 7.93397 36.5932 7.9783 37.1577C8.51236 43.9359 11.5602 50.2255 16.5601 54.8681C21.5872 59.5363 28.1363 62.1067 35.0005 62.1067C41.8648 62.1067 48.4134 59.5363 53.4405 54.8681C58.4403 50.2255 61.4882 43.9359 62.0223 37.1577C62.0666 36.5932 61.6447 36.0997 61.0802 36.0554Z" fill="white"/>
<path d="M8.91984 33.9393C8.94708 33.9414 8.97432 33.9425 9.00155 33.9425C9.53134 33.9425 9.98048 33.535 10.0227 32.9978C10.5177 26.7354 13.3354 20.9232 17.9572 16.6326C22.6035 12.3196 28.6559 9.94409 35 9.94409C41.3403 9.94409 47.3907 12.3174 52.0359 16.6262C56.656 20.9126 59.4759 26.7194 59.9757 32.978C60.0206 33.5425 60.5157 33.9628 61.0796 33.9185C61.6441 33.8731 62.065 33.3791 62.0201 32.8146C61.4791 26.0427 58.4291 19.7595 53.4303 15.1228C48.4049 10.4611 41.8594 7.89331 35 7.89331C28.1368 7.89331 21.5888 10.4632 16.5622 15.1298C11.5624 19.7713 8.51396 26.0598 7.9783 32.8365C7.93397 33.401 8.35534 33.8944 8.91984 33.9393Z" fill="white"/>
<path d="M53.048 29.4762C52.7468 28.5481 51.9216 27.9195 50.947 27.8751L40.7604 27.4116L37.1715 17.8669C36.8281 16.9537 35.9757 16.3635 35 16.3635C34.0243 16.3635 33.1719 16.9537 32.8285 17.8669L29.2397 27.4116L19.0531 27.8751C18.0784 27.9195 17.2533 28.5481 16.9521 29.4762C16.6503 30.4039 16.9483 31.3973 17.711 32.0061L25.6791 38.3688L22.9725 48.1998C22.7135 49.1408 23.0564 50.1192 23.8457 50.6928C24.635 51.2663 25.6716 51.2898 26.4866 50.7526L35 45.1407L43.5134 50.7531C43.906 51.0116 44.3492 51.1398 44.7914 51.1398C45.2683 51.1398 45.7447 50.9902 46.1543 50.6928C46.9437 50.1192 47.2865 49.1408 47.0275 48.1998L44.3209 38.3688L52.2891 32.0061C53.0517 31.3973 53.3497 30.4039 53.048 29.4762ZM51.0095 30.4034L42.5131 37.188C42.1927 37.4439 42.0555 37.8658 42.1644 38.2615L45.0504 48.744C45.083 48.8636 45.0494 48.9608 44.949 49.0334C44.8486 49.1066 44.7455 49.1087 44.6424 49.0404L35.5645 43.0563C35.3931 42.9436 35.1966 42.887 35 42.887C34.8035 42.887 34.607 42.9436 34.4355 43.0563L25.3576 49.0404C25.2545 49.1087 25.1515 49.1066 25.0511 49.0334C24.9512 48.9608 24.917 48.8636 24.9496 48.744L27.8356 38.2615C27.9446 37.8658 27.8073 37.4439 27.4869 37.188L18.9906 30.4034C18.8939 30.3259 18.864 30.2271 18.9025 30.1096C18.9404 29.9921 19.0226 29.9297 19.146 29.9238L30.0076 29.4292C30.4178 29.4106 30.7767 29.1499 30.9209 28.7659L34.7479 18.5884C34.7912 18.4725 34.8761 18.4138 35 18.4138C35.1234 18.4138 35.2083 18.4725 35.2521 18.5884L39.0786 28.7659C39.2233 29.1499 39.5822 29.4106 39.9919 29.4292L50.8535 29.9238C50.9774 29.9297 51.0591 29.9921 51.0976 30.1096C51.136 30.2277 51.1061 30.3259 51.0095 30.4034Z" fill="white"/>
</svg>
