<svg width="70" height="70" viewBox="0 0 70 70" fill="none" xmlns="http://www.w3.org/2000/svg">
<path d="M26.8962 18.1622H43.1038C43.6704 18.1622 44.1292 17.7029 44.1292 17.1368C44.1292 16.5707 43.6704 16.1115 43.1038 16.1115H26.8962C26.3301 16.1115 25.8708 16.5707 25.8708 17.1368C25.8708 17.7029 26.3301 18.1622 26.8962 18.1622Z" fill="#668997"/>
<path d="M13.7237 26.5544H56.2763C56.843 26.5544 57.3017 26.0952 57.3017 25.5291C57.3017 24.9624 56.843 24.5037 56.2763 24.5037H13.7237C13.1571 24.5037 12.6983 24.9624 12.6983 25.5291C12.6983 26.0952 13.1571 26.5544 13.7237 26.5544Z" fill="#668997"/>
<path d="M13.7237 33.7338H56.2763C56.843 33.7338 57.3017 33.2745 57.3017 32.7084C57.3017 32.1423 56.843 31.683 56.2763 31.683H13.7237C13.1571 31.683 12.6983 32.1423 12.6983 32.7084C12.6983 33.2745 13.1571 33.7338 13.7237 33.7338Z" fill="#668997"/>
<path d="M39.5149 38.8623H13.7237C13.1571 38.8623 12.6983 39.3216 12.6983 39.8877C12.6983 40.4538 13.1571 40.9131 13.7237 40.9131H39.5149C40.0816 40.9131 40.5403 40.4538 40.5403 39.8877C40.5403 39.3216 40.0816 38.8623 39.5149 38.8623Z" fill="#668997"/>
<path d="M67.0883 4.78516H2.91168C1.30631 4.78516 0 6.09146 0 7.69684V55.377C0 56.9823 1.30631 58.2887 2.91168 58.2887H44.9052C45.4718 58.2887 45.9306 57.8294 45.9306 57.2633C45.9306 56.6966 45.4718 56.2379 44.9052 56.2379H2.91168C2.4369 56.2379 2.05078 55.8517 2.05078 55.377V7.69684C2.05078 7.22206 2.4369 6.83594 2.91168 6.83594H67.0883C67.5631 6.83594 67.9492 7.22206 67.9492 7.69684V55.377C67.9492 55.8517 67.5631 56.2379 67.0883 56.2379H62.9809C62.4142 56.2379 61.9555 56.6966 61.9555 57.2633C61.9555 57.8294 62.4142 58.2887 62.9809 58.2887H67.0883C68.6937 58.2887 70 56.9823 70 55.377V7.69684C70 6.09146 68.6937 4.78516 67.0883 4.78516Z" fill="#668997"/>
<path d="M64.0554 52.6949C64.5136 51.9013 64.5564 50.932 64.1708 50.101C64.0143 49.7651 64.1211 49.3672 64.4244 49.1541C65.1737 48.6281 65.6218 47.7672 65.6218 46.8507C65.6218 46.5837 65.5833 46.3209 65.5107 46.0699C65.5844 45.8152 65.6213 45.5524 65.6213 45.2838V17.7894C65.6213 16.4677 64.7102 15.3194 63.4049 14.9974C61.6153 14.5563 60.2289 13.1698 59.7878 11.3797C59.4657 10.075 58.3175 9.16388 56.9952 9.16388H13.0043C11.6825 9.16388 10.5343 10.075 10.2122 11.3802C9.77058 13.1698 8.3847 14.5563 6.59454 14.9974C5.28984 15.3194 4.3782 16.4677 4.3782 17.7894V45.2838C4.3782 46.6061 5.28984 47.7543 6.59454 48.0764C8.3847 48.5175 9.77058 49.9039 10.2122 51.6936C10.5343 52.9988 11.6825 53.9099 13.0043 53.9099H45.2293C45.4739 54.0055 45.7335 54.0669 46.0011 54.0909C46.3696 54.1235 46.6611 54.4151 46.6937 54.7836C46.7712 55.6552 47.2507 56.4403 47.9845 56.9081V63.3371C47.9845 63.9801 48.3135 64.5617 48.8647 64.8933C49.1541 65.0674 49.4767 65.1555 49.7998 65.1555C50.0909 65.1555 50.383 65.084 50.6516 64.9414L53.9339 63.1998L57.2163 64.9414C57.784 65.2426 58.4526 65.225 59.0038 64.8933C59.5549 64.5617 59.8839 63.9801 59.8839 63.3371V56.9081C60.6171 56.4403 61.0967 55.6552 61.1742 54.7836C61.2067 54.4151 61.4983 54.123 61.8674 54.0904C62.7795 54.0098 63.5977 53.488 64.0554 52.6949ZM12.2038 51.2028C11.5789 48.6708 9.61784 46.7097 7.08588 46.0849C6.69922 45.9898 6.42899 45.6603 6.42899 45.2838V17.7894C6.42899 17.4135 6.69922 17.084 7.08588 16.9889C9.61784 16.364 11.5789 14.403 12.2032 11.871C12.2988 11.4844 12.6283 11.2147 13.0043 11.2147H56.9957C57.3717 11.2147 57.7012 11.4849 57.7962 11.871C58.4211 14.403 60.3822 16.364 62.9141 16.9889C63.3008 17.084 63.571 17.4135 63.571 17.7894V40.3876C63.1133 39.9475 62.5141 39.6682 61.8674 39.611C61.4983 39.5779 61.2067 39.2863 61.1742 38.9178C61.093 38.0051 60.5712 37.187 59.7781 36.7293C58.9845 36.271 58.0147 36.2283 57.1848 36.6144C56.8483 36.7704 56.4504 36.6636 56.2373 36.3608C55.7108 35.6109 54.8499 35.1634 53.9339 35.1634C53.0175 35.1634 52.1566 35.6109 51.6306 36.3608C51.4175 36.6636 51.0191 36.7704 50.6837 36.6144C49.8527 36.2283 48.8834 36.2716 48.0898 36.7293C47.2967 37.187 46.7749 38.0051 46.6937 38.9178C46.6611 39.2863 46.3696 39.5779 46.0005 39.611C45.0883 39.6917 44.2702 40.214 43.812 41.0071C43.3537 41.8001 43.311 42.77 43.6971 43.6004C43.8531 43.9364 43.7463 44.3348 43.4435 44.5473C42.6936 45.0739 42.2461 45.9348 42.2461 46.8507C42.2461 47.7672 42.6936 48.6281 43.4435 49.1541C43.7468 49.3672 43.8531 49.7651 43.6971 50.101C43.4392 50.6564 43.373 51.2738 43.4942 51.8591H13.0043C12.6283 51.8591 12.2988 51.5894 12.2038 51.2028ZM54.7852 61.3301C54.2522 61.0476 53.6156 61.0476 53.0827 61.3301L50.0353 62.9472V57.2974C50.257 57.2547 50.4749 57.1847 50.6837 57.0875C51.0201 56.9311 51.418 57.0384 51.6306 57.3412C52.1571 58.0905 53.018 58.538 53.9339 58.538C54.8504 58.538 55.7113 58.0905 56.2379 57.3412C56.4504 57.0379 56.8488 56.9311 57.1848 57.0875C57.3936 57.1847 57.6115 57.2547 57.8331 57.2974V62.9472L54.7852 61.3301ZM63.2458 47.4761C62.1291 48.2601 61.7355 49.7277 62.3106 50.9656C62.4169 51.1942 62.4057 51.4506 62.2797 51.669C62.1536 51.8874 61.9373 52.0257 61.6858 52.0482C60.3261 52.1689 59.2521 53.2429 59.1314 54.6026C59.109 54.8541 58.9706 55.0704 58.7522 55.1964C58.5338 55.3225 58.2774 55.3337 58.0489 55.228C56.8098 54.6522 55.3428 55.0458 54.5588 56.1626C54.4141 56.3692 54.186 56.4878 53.9339 56.4878C53.6819 56.4878 53.4538 56.3692 53.3091 56.1626C52.767 55.3908 51.8992 54.9647 51.0057 54.9647C50.6062 54.9647 50.202 55.0501 49.8196 55.2274C49.5905 55.3342 49.3341 55.3225 49.1157 55.1964C48.8972 55.0704 48.7589 54.8541 48.7365 54.6026C48.6158 53.2434 47.5418 52.1689 46.1821 52.0482C45.9306 52.0257 45.7143 51.8874 45.5882 51.669C45.4617 51.4506 45.4504 51.1942 45.5567 50.9656C46.1319 49.7277 45.7388 48.2601 44.6216 47.4761C44.4154 47.3308 44.2969 47.1028 44.2969 46.8507C44.2969 46.5986 44.4154 46.3706 44.6216 46.2259C45.7388 45.4413 46.1319 43.9738 45.5567 42.7363C45.4504 42.5072 45.4617 42.2509 45.5882 42.0325C45.7143 41.814 45.9306 41.6757 46.1821 41.6533C47.5413 41.5326 48.6158 40.4586 48.7365 39.0989C48.7589 38.8473 48.8972 38.631 49.1157 38.505C49.3341 38.379 49.591 38.3678 49.819 38.474C51.0575 39.0492 52.5246 38.6556 53.3086 37.5389C53.4538 37.3322 53.6819 37.2142 53.9339 37.2142C54.186 37.2142 54.4141 37.3322 54.5588 37.5389C55.3428 38.6556 56.8109 39.0492 58.0483 38.474C58.2774 38.3678 58.5338 38.379 58.7522 38.505C58.9706 38.631 59.1084 38.8473 59.1309 39.0989C59.2516 40.4586 60.3261 41.5326 61.6858 41.6533C61.9368 41.6757 62.1536 41.814 62.2797 42.0325C62.4057 42.2509 62.4169 42.5072 62.3106 42.7363C61.7355 43.9738 62.1291 45.4413 63.2458 46.2259C63.4525 46.3711 63.571 46.5986 63.571 46.8507C63.571 47.1033 63.4525 47.3308 63.2458 47.4761Z" fill="#668997"/>
<path d="M53.9339 39.6832C49.9819 39.6832 46.7664 42.8987 46.7664 46.8508C46.7664 50.8028 49.9819 54.0183 53.9339 54.0183C57.886 54.0183 61.1015 50.8028 61.1015 46.8508C61.1015 42.8987 57.886 39.6832 53.9339 39.6832ZM53.9339 51.9676C51.1125 51.9676 48.8171 49.6722 48.8171 46.8508C48.8171 44.0299 51.1125 41.7345 53.9339 41.7345C56.7554 41.7345 59.0508 44.0299 59.0508 46.8508C59.0508 49.6722 56.7554 51.9676 53.9339 51.9676Z" fill="#668997"/>
</svg>
