<svg width="50" height="50" viewBox="0 0 50 50" fill="none" xmlns="http://www.w3.org/2000/svg">
<path d="M49.9978 34.537C49.9979 34.5257 49.9991 34.5146 49.9991 34.5032C49.9991 34.5008 49.9988 34.4983 49.9987 34.4957C49.9986 34.4773 49.9973 34.459 49.9959 34.4405C49.9952 34.4315 49.9948 34.4226 49.9938 34.4137C49.9921 34.3978 49.9893 34.3821 49.9866 34.3662C49.9846 34.3549 49.983 34.3434 49.9805 34.3322C49.9778 34.32 49.9744 34.3079 49.9711 34.2957C49.9673 34.2811 49.9636 34.2665 49.9589 34.2524C49.9559 34.2431 49.9521 34.2338 49.9488 34.2245C49.9427 34.208 49.9366 34.1917 49.9295 34.1757C49.9284 34.1732 49.9276 34.1706 49.9264 34.168L41.3598 15.3213V12.851H41.4138C42.3368 12.851 43.0877 12.1001 43.0877 11.1771V11.0488C43.0877 10.2229 42.4959 9.52797 41.6805 9.39633L27.5369 7.11393V5.66371C28.0737 5.06209 28.4009 4.26955 28.4009 3.40173C28.4009 1.52603 26.8748 0 24.9991 0C23.1234 0 21.5974 1.52603 21.5974 3.40173C21.5974 4.26955 21.9245 5.06209 22.4613 5.66371V7.03521L8.30917 9.39395C7.49881 9.52905 6.91058 10.2234 6.91058 11.045V11.1771C6.91058 12.1001 7.66144 12.851 8.58444 12.851H8.63844V15.3213L0.0717016 34.168C0.0705137 34.1705 0.0697578 34.1732 0.0686778 34.1757C0.0616584 34.1916 0.0555029 34.208 0.0494554 34.2244C0.0459997 34.2337 0.042328 34.243 0.0391962 34.2524C0.0345526 34.2665 0.0307729 34.2811 0.0269932 34.2957C0.0237534 34.3079 0.0202977 34.32 0.0175979 34.3322C0.0152221 34.3434 0.0134943 34.3549 0.0115504 34.3662C0.00885065 34.3821 0.00604287 34.3978 0.00431501 34.4137C0.00334309 34.4226 0.00301912 34.4316 0.00226318 34.4406C0.00085929 34.459 -0.000328614 34.4773 -0.000544597 34.4956C-0.000544597 34.4982 -0.000976562 34.5006 -0.000976562 34.5031C-0.000976562 34.5146 0.000211342 34.5257 0.000319334 34.5371C0.000751299 34.5462 0.000643307 34.5554 0.00139925 34.5645C0.0519392 37.8959 4.18218 40.4968 9.44837 40.4968C14.7146 40.4968 18.8448 37.8959 18.8952 34.5646C18.896 34.5555 18.8959 34.5463 18.8963 34.5371C18.8964 34.5258 18.8976 34.5147 18.8976 34.5033C18.8976 34.5009 18.8973 34.4984 18.8972 34.4958C18.8971 34.4774 18.8958 34.4591 18.8944 34.4406C18.8937 34.4316 18.8933 34.4227 18.8923 34.4138C18.8906 34.3979 18.8878 34.3822 18.8851 34.3663C18.8831 34.355 18.8815 34.3435 18.879 34.3323C18.8763 34.3201 18.8729 34.308 18.8696 34.2958C18.8658 34.2812 18.8621 34.2666 18.8574 34.2525C18.8544 34.2432 18.8506 34.2339 18.8473 34.2246C18.8412 34.2081 18.8351 34.1918 18.828 34.1758C18.8269 34.1733 18.8261 34.1707 18.8249 34.1681L10.2583 15.3213V12.851H22.4613V30.4476C21.9468 30.7335 21.5974 31.2822 21.5974 31.9114V43.843L16.4667 45.4463C15.4016 45.7793 14.686 46.7527 14.686 47.8687V49.1901C14.686 49.6374 15.0485 50 15.4959 50H34.5024C34.9498 50 35.3123 49.6374 35.3123 49.1901V47.8686C35.3123 46.7526 34.5966 45.7792 33.5315 45.4462L28.4009 43.843V31.9114C28.4009 31.2822 28.0515 30.7335 27.5369 30.4476V12.851H39.7399V15.3213L31.1732 34.1681C31.172 34.1706 31.1713 34.1733 31.1702 34.1758C31.1632 34.1917 31.157 34.2081 31.151 34.2245C31.1475 34.2338 31.1438 34.2431 31.1407 34.2525C31.1361 34.2666 31.1323 34.2812 31.1285 34.2958C31.1253 34.308 31.1218 34.3201 31.1191 34.3323C31.1167 34.3435 31.115 34.355 31.1131 34.3663C31.1104 34.3822 31.1075 34.3979 31.1058 34.4138C31.1048 34.4227 31.1045 34.4317 31.1038 34.4407C31.1024 34.4591 31.1012 34.4774 31.101 34.4957C31.101 34.4983 31.1005 34.5008 31.1005 34.5032C31.1005 34.5147 31.1017 34.5258 31.1018 34.5373C31.1023 34.5463 31.1021 34.5555 31.1029 34.5646C31.1534 37.8959 35.2837 40.4968 40.5499 40.4968C45.8161 40.4968 49.9463 37.8959 49.9967 34.5646C49.9975 34.5554 49.9974 34.5462 49.9978 34.537ZM9.44837 17.4541L16.8298 33.6933H2.06695L9.44837 17.4541ZM9.44837 38.8769C5.69805 38.8769 2.4622 37.313 1.76004 35.3132H17.1368C16.4345 37.313 13.1987 38.8769 9.44837 38.8769ZM26.781 31.9114V43.6285H23.2173V31.9114C23.2173 31.8816 23.2416 31.8575 23.2713 31.8575H26.727C26.7567 31.8575 26.781 31.8816 26.781 31.9114ZM24.0812 30.2376V6.67657C24.3734 6.75864 24.6811 6.80346 24.9991 6.80346C25.3172 6.80346 25.6248 6.75864 25.9171 6.67657V30.2376H24.0812ZM24.9991 1.61987C25.9816 1.61987 26.781 2.41922 26.781 3.40173C26.781 4.38423 25.9816 5.18359 24.9991 5.18359C24.0166 5.18359 23.2173 4.38423 23.2173 3.40173C23.2173 2.41922 24.0166 1.61987 24.9991 1.61987ZM8.58444 11.2311C8.55474 11.2311 8.53045 11.2069 8.53045 11.1771V11.045C8.53045 11.0185 8.54945 10.9961 8.57559 10.9918L22.4613 8.67754V11.2311H8.58444ZM33.6924 47.8686V48.3801H16.3058V47.8686C16.3058 47.4649 16.5647 47.1127 16.95 46.9924L22.531 45.2484H27.4674L33.0484 46.9924C33.4336 47.1129 33.6924 47.4649 33.6924 47.8686ZM27.5369 8.75486L41.4223 10.9956C41.4487 10.9998 41.4678 11.0222 41.4678 11.0489V11.1772C41.4678 11.207 41.4435 11.2312 41.4138 11.2312H27.5369V8.75486ZM40.5499 17.4541L47.9313 33.6933H33.1685L40.5499 17.4541ZM40.5499 38.8769C36.7996 38.8769 33.5637 37.313 32.8615 35.3132H48.2383C47.5361 37.313 44.3002 38.8769 40.5499 38.8769Z" fill="#10A58E"/>
</svg>
