<svg width="50" height="50" viewBox="0 0 50 50" fill="none" xmlns="http://www.w3.org/2000/svg">
<path d="M47.4622 41.3078H46.5443V40.3898C46.5443 38.9905 45.4058 37.8521 44.0065 37.8521H35.3672C33.9678 37.8521 32.8294 38.9905 32.8294 40.3898V41.3078H31.9115C30.5121 41.3078 29.3737 42.4462 29.3737 43.8456V45.5734C29.3737 46.0207 29.7363 46.3834 30.1836 46.3834H49.1901C49.6374 46.3834 50 46.0207 50 45.5734V43.8456C50 42.4462 48.8616 41.3078 47.4622 41.3078ZM34.4493 40.3898C34.4493 39.8837 34.861 39.4719 35.3672 39.4719H44.0065C44.5126 39.4719 44.9244 39.8837 44.9244 40.3898V41.3078H34.4493V40.3898ZM48.3801 44.7635H30.9935V43.8456C30.9935 43.3394 31.4053 42.9276 31.9115 42.9276H47.4622C47.9684 42.9276 48.3801 43.3394 48.3801 43.8456V44.7635Z" fill="#10A58E"/>
<path d="M30.9936 23.8703L30.9554 23.9085C29.9659 24.898 29.9659 26.508 30.9554 27.4974C31.4347 27.9766 32.072 28.2407 32.7499 28.2407C33.4278 28.2407 34.065 27.9766 34.5444 27.4974L39.4315 22.6103C39.9108 22.1311 40.1748 21.4937 40.1748 20.8158C40.1748 20.138 39.9108 19.5006 39.4315 19.0213C38.9523 18.5421 38.3149 18.278 37.637 18.278C36.9592 18.278 36.3218 18.5421 35.8425 19.0213L35.8044 19.0596L33.9258 17.1808C34.0875 16.6149 33.9465 15.9799 33.5016 15.535L28.2566 10.2899C27.8117 9.84499 27.1767 9.70406 26.6107 9.86584L24.732 7.98722L24.7701 7.94899C25.2494 7.46972 25.5134 6.83236 25.5134 6.1545C25.5134 5.47663 25.2494 4.83938 24.7701 4.36C24.2908 3.88074 23.6535 3.6167 22.9756 3.6167C22.2977 3.6167 21.6604 3.88074 21.1811 4.36L16.2941 9.24715C15.8148 9.72642 15.5508 10.3638 15.5508 11.0416C15.5508 11.7195 15.8148 12.3569 16.2941 12.8361C16.7888 13.331 17.4387 13.5783 18.0886 13.5783C18.7384 13.5783 19.3883 13.3308 19.883 12.8361L19.9213 12.7979L21.7995 14.6761C21.7569 14.8248 21.7339 14.98 21.7339 15.1389C21.7339 15.5861 21.908 16.0064 22.2242 16.3225L22.4413 16.5396L20.7621 18.2189C20.2262 18.7547 19.9832 19.4723 20.0276 20.175L0.743304 39.4592C0.264039 39.9385 0 40.5758 0 41.2537C0 41.9317 0.264039 42.569 0.743304 43.0482C1.22257 43.5275 1.85994 43.7915 2.5378 43.7915C3.21566 43.7915 3.85302 43.5275 4.33229 43.0482L23.6165 23.764C23.6704 23.7673 23.7243 23.7717 23.7782 23.7717C24.428 23.7717 25.078 23.5243 25.5727 23.0296L27.2519 21.3504L27.469 21.5675C27.7852 21.8837 28.2055 22.0578 28.6526 22.0578C28.8116 22.0578 28.9667 22.0348 29.1154 21.9923L30.9936 23.8703ZM37.637 19.8983C37.8721 19.8983 38.1072 19.9879 38.2862 20.1668C38.4595 20.3401 38.5551 20.5706 38.5551 20.8158C38.5551 21.0611 38.4596 21.2915 38.2862 21.465L33.399 26.352C33.041 26.71 32.4587 26.7099 32.1009 26.352C31.743 25.9941 31.743 25.4117 32.1009 25.0538L36.988 20.1667C37.167 19.9878 37.4019 19.8983 37.637 19.8983ZM32.1391 22.7249L30.409 20.9948L32.9289 18.4748L34.6591 20.2049L32.1391 22.7249ZM17.4395 11.6907C17.0816 11.3328 17.0816 10.7504 17.4395 10.3925L22.3266 5.50536C22.4999 5.33203 22.7305 5.23646 22.9757 5.23646C23.221 5.23646 23.4514 5.33193 23.6247 5.50536C23.9826 5.86324 23.9826 6.44564 23.6247 6.80352L18.7376 11.6907C18.3797 12.0484 17.7974 12.0484 17.4395 11.6907ZM23.5866 9.13247L25.3167 10.8626L22.7968 13.3826L21.0666 11.6524L23.5866 9.13247ZM3.18683 41.9028C3.0135 42.0761 2.78305 42.1717 2.5378 42.1717C2.29255 42.1717 2.06209 42.0762 1.88877 41.9028C1.71544 41.7294 1.61987 41.499 1.61987 41.2537C1.61987 41.0085 1.71533 40.778 1.88877 40.6047L20.7257 21.7677C20.7382 21.7807 20.749 21.7949 20.762 21.8078L21.9837 23.0296C21.9965 23.0424 22.0107 23.0532 22.0239 23.0658L3.18683 41.9028ZM24.4273 21.8841C24.0694 22.242 23.4871 22.242 23.1292 21.8841L21.9075 20.6624C21.5496 20.3045 21.5496 19.7221 21.9075 19.3642L23.5866 17.6849L26.1066 20.2049L24.4273 21.8841ZM23.3694 15.1771C23.3656 15.1732 23.3537 15.1613 23.3537 15.1389C23.3537 15.1166 23.3656 15.1046 23.3694 15.1007L27.0348 11.4354C27.0454 11.4249 27.0592 11.4196 27.073 11.4196C27.0868 11.4196 27.1006 11.4249 27.1112 11.4354L32.3562 16.6803C32.3772 16.7014 32.3772 16.7357 32.3562 16.7568L28.6908 20.4221C28.6869 20.426 28.6749 20.4379 28.6526 20.4379C28.6302 20.4379 28.6184 20.426 28.6144 20.4221L23.3694 15.1771Z" fill="#10A58E"/>
</svg>
