<svg width="50" height="50" viewBox="0 0 50 50" fill="none" xmlns="http://www.w3.org/2000/svg">
<path d="M37.959 44.9244H37.905V27.4045C38.9082 27.0657 39.6328 26.1162 39.6328 25C39.6328 23.8838 38.9082 22.9343 37.905 22.5955V5.07559H37.959C39.3583 5.07559 40.4968 3.93715 40.4968 2.5378C40.4968 1.13844 39.3583 0 37.959 0H12.041C10.6417 0 9.50324 1.13844 9.50324 2.5378C9.50324 3.93715 10.6417 5.07559 12.041 5.07559H12.095V22.5955C11.0918 22.9343 10.3672 23.8838 10.3672 25C10.3672 26.1162 11.0918 27.0657 12.095 27.4045V44.9244H12.041C10.6417 44.9244 9.50324 46.0629 9.50324 47.4622C9.50324 48.8616 10.6417 50 12.041 50H37.959C39.3583 50 40.4968 48.8616 40.4968 47.4622C40.4968 46.0629 39.3583 44.9244 37.959 44.9244ZM37.095 25.9179C36.5889 25.9179 36.1771 25.5062 36.1771 25C36.1771 24.4938 36.5889 24.0821 37.095 24.0821C37.6012 24.0821 38.013 24.4938 38.013 25C38.013 25.5062 37.6012 25.9179 37.095 25.9179ZM36.2851 22.5955C35.2819 22.9343 34.5572 23.8838 34.5572 25C34.5572 26.1162 35.2819 27.0657 36.2851 27.4045V44.9244H33.7623C34.7819 43.434 35.3132 41.6533 35.3132 39.6868C35.3132 36.2066 33.5992 32.4414 30.3567 28.7981C28.8045 27.0541 27.266 25.7366 26.3394 25C27.266 24.2634 28.8045 22.9459 30.3567 21.2019C33.5992 17.5586 35.3132 13.7934 35.3132 10.3132C35.3132 8.34665 34.7819 6.56598 33.7623 5.07559H36.2851V22.5955ZM18.3206 44.9244C17.0025 43.5486 16.3067 41.7452 16.3067 39.6868C16.3067 37.5238 17.0618 35.4472 18.1379 33.5853H22.4082C23.4457 33.5853 24.3756 33.1179 25 32.3833C25.6244 33.1179 26.5543 33.5853 27.5918 33.5853H31.8654C32.9397 35.4461 33.6933 37.5222 33.6933 39.6868C33.6933 41.7452 32.9975 43.5486 31.6794 44.9244H18.3206ZM18.3206 5.07559H31.6794C32.9975 6.4514 33.6933 8.25475 33.6933 10.3132C33.6933 12.4762 32.9382 14.5528 31.8621 16.4147H18.1346C17.0603 14.5539 16.3067 12.4778 16.3067 10.3132C16.3067 8.25475 17.0025 6.4514 18.3206 5.07559ZM30.8146 18.0346C28.7143 20.972 26.0577 23.1705 24.9996 23.9888C23.9402 23.1708 21.2817 20.9736 19.1813 18.0346H30.8146ZM27.5918 31.9654C26.6093 31.9654 25.8099 31.1661 25.8099 30.1836V26.6619C27.1001 27.7369 29.1378 29.6134 30.8187 31.9654H27.5918ZM24.1901 30.1836C24.1901 31.1661 23.3907 31.9654 22.4082 31.9654H19.1854C20.8656 29.6157 22.901 27.7392 24.1901 26.6635V30.1836ZM11.1231 2.5378C11.1231 2.03164 11.5349 1.61987 12.041 1.61987H37.959C38.4651 1.61987 38.8769 2.03164 38.8769 2.5378C38.8769 3.04395 38.4651 3.45572 37.959 3.45572H12.041C11.5349 3.45572 11.1231 3.04395 11.1231 2.5378ZM12.905 24.0821C13.4111 24.0821 13.8229 24.4938 13.8229 25C13.8229 25.5062 13.4111 25.9179 12.905 25.9179C12.3988 25.9179 11.987 25.5062 11.987 25C11.987 24.4938 12.3988 24.0821 12.905 24.0821ZM13.7149 27.4045C14.7181 27.0657 15.4428 26.1162 15.4428 25C15.4428 23.8838 14.7181 22.9343 13.7149 22.5955V5.07559H16.2377C15.2181 6.56598 14.6868 8.34665 14.6868 10.3132C14.6868 13.7934 16.4008 17.5586 19.6433 21.2019C21.1955 22.9459 22.734 24.2634 23.6606 25C22.734 25.7366 21.1955 27.0541 19.6433 28.7981C16.4008 32.4414 14.6868 36.2066 14.6868 39.6868C14.6868 41.6533 15.2181 43.434 16.2377 44.9244H13.7149V27.4045ZM37.959 48.3801H12.041C11.5349 48.3801 11.1231 47.9684 11.1231 47.4622C11.1231 46.956 11.5349 46.5443 12.041 46.5443H37.959C38.4651 46.5443 38.8769 46.956 38.8769 47.4622C38.8769 47.9684 38.4651 48.3801 37.959 48.3801Z" fill="#10A58E"/>
</svg>
