<svg width="50" height="50" viewBox="0 0 50 50" fill="none" xmlns="http://www.w3.org/2000/svg">
<path d="M41.1937 37.5935L39.9203 37.045C39.9299 36.6975 39.7136 36.3702 39.367 36.2546L38.7676 36.0549C38.7394 32.8501 37.95 31.0468 37.2515 29.4533C36.6794 28.1481 36.1853 27.0187 36.1779 25.2558C36.3632 24.6954 36.521 24.118 36.6487 23.5259L36.8488 23.2699C38.5849 21.0502 39.6328 19.7105 39.6328 16.3607C39.6328 12.4276 38.0866 8.35853 35.3905 5.19698C32.5327 1.84568 28.8427 0 25 0C21.1574 0 17.4673 1.84568 14.6095 5.19698C11.9134 8.35853 10.3672 12.4276 10.3672 16.3607C10.3672 19.7143 11.5094 21.1748 13.2382 23.3855L13.3527 23.532C13.9959 26.5075 15.3928 29.1154 17.2792 31.0357C17.2791 31.0396 17.2786 31.0435 17.2786 31.0474V33.2057L16.3162 33.8473C16.0115 34.0504 15.7658 34.3113 15.5808 34.6053L10.6331 36.2545C10.2865 36.3701 10.0702 36.6973 10.0797 37.0449L8.80627 37.5934C6.60552 38.5414 5.18359 40.702 5.18359 43.0982V47.4622C5.18359 48.8616 6.32204 50 7.72139 50H42.2786C43.678 50 44.8164 48.8616 44.8164 47.4622V43.0982C44.8164 40.702 43.3945 38.5414 41.1937 37.5935ZM33.8294 41.8639L35.294 44.0608L33.0881 48.3801H30.1816C30.266 47.1307 30.4756 45.6046 30.9667 44.2898C30.9783 44.259 30.9872 44.2279 30.9948 44.1965C31.0015 44.1833 31.0081 44.1701 31.0149 44.1567L32.2724 41.6434C33.0296 40.1287 33.9386 38.3098 34.5467 37.0927C34.6537 36.8785 34.7275 36.6556 34.77 36.4298L38.014 37.5111C38.0183 37.5689 38.0281 37.6258 38.0442 37.681L37.3282 39.8736L34.3069 40.6289C34.0514 40.6928 33.8429 40.8769 33.7478 41.1226C33.6528 41.3683 33.6833 41.6448 33.8294 41.8639ZM16.9119 48.3801L14.7061 44.0608L16.1706 41.8639C16.3167 41.6448 16.3472 41.3683 16.2522 41.1226C16.1571 40.8769 15.9486 40.6928 15.6931 40.6289L12.6718 39.8736L11.9553 37.6794C11.9711 37.6248 11.9807 37.5686 11.9848 37.5116L15.2299 36.4298C15.2724 36.6555 15.3462 36.8785 15.4532 37.0927C16.0613 38.3098 16.9703 40.1287 17.7275 41.6434L18.985 44.1567C19.0122 44.2109 19.0388 44.2637 19.0662 44.3146C19.5568 45.6403 19.7609 47.1801 19.8424 48.3801H16.9119ZM20.7458 44.2212C21.7998 43.1489 22.5388 42.2497 23.0433 41.5614L24.1901 45.0018V48.3801H21.4657C21.3897 47.1834 21.1993 45.6427 20.7458 44.2212ZM25.7684 44.6143L24.0405 39.4307C24.0203 39.3701 23.993 39.3139 23.9608 39.2618C23.9568 39.2554 23.9527 39.2491 23.9486 39.2428C23.9308 39.2155 23.9118 39.1895 23.891 39.165C23.8895 39.1633 23.8886 39.1613 23.887 39.1596L23.8827 39.1545C23.8814 39.153 23.8802 39.1515 23.8788 39.15L18.8985 33.3397V32.4267C20.6889 33.711 22.7747 34.4492 25 34.4492C27.2253 34.4492 29.3111 33.711 31.1015 32.4267V33.3397L26.113 39.1597C25.9096 39.397 25.8609 39.7301 25.9878 40.0158C26.0184 40.0847 26.7392 41.6668 29.2727 44.2401C28.8299 45.6344 28.6368 47.1454 28.5589 48.3801H25.8099V44.8704C25.8099 44.7834 25.7959 44.6969 25.7684 44.6143ZM14.5788 19.8164C14.5788 14.6403 18.7611 11.4013 20.5131 10.4327C22.212 12.1226 24.5538 13.5013 27.5161 14.5509C30.5131 15.6127 33.4324 16.0662 34.9907 16.1991C35.2766 17.4015 35.4212 18.6157 35.4212 19.8164C35.4212 19.8353 35.4206 19.8542 35.4206 19.8731C35.4029 19.8719 35.3852 19.8704 35.3672 19.8704H32.5881C32.2493 18.8672 31.2998 18.1425 30.1836 18.1425H28.4557C27.5399 18.1425 26.7358 18.6303 26.2895 19.3597C25.9113 19.1356 25.4706 19.0065 25 19.0065C24.5294 19.0065 24.0887 19.1356 23.7105 19.3597C23.2643 18.6303 22.4602 18.1425 21.5443 18.1425H19.8164C18.7002 18.1425 17.7508 18.8672 17.4119 19.8704H14.6328C14.6148 19.8704 14.5972 19.8719 14.5794 19.8731C14.5794 19.8542 14.5788 19.8353 14.5788 19.8164ZM14.6648 21.4903H17.2786V21.5443C17.2786 21.9916 17.6413 22.3542 18.0886 22.3542C18.5359 22.3542 18.8985 21.9916 18.8985 21.5443V20.6803C18.8985 20.1742 19.3103 19.7624 19.8164 19.7624H19.8704V20.6803C19.8704 21.1276 20.2331 21.4903 20.6804 21.4903C21.1277 21.4903 21.4903 21.1276 21.4903 20.6803V19.7624H21.5443C22.0504 19.7624 22.4622 20.1742 22.4622 20.6803V21.5443C22.4622 21.9916 22.8248 22.3542 23.2721 22.3542C23.7194 22.3542 24.0821 21.9916 24.0821 21.5443C24.0821 21.0381 24.4939 20.6264 25 20.6264C25.5062 20.6264 25.9179 21.0381 25.9179 21.5443C25.9179 21.9916 26.2806 22.3542 26.7279 22.3542C27.1752 22.3542 27.5378 21.9916 27.5378 21.5443V20.6803C27.5378 20.1742 27.9496 19.7624 28.4557 19.7624H28.5097V20.6803C28.5097 21.1276 28.8724 21.4903 29.3197 21.4903C29.767 21.4903 30.1296 21.1276 30.1296 20.6803V19.7624H30.1836C30.6897 19.7624 31.1015 20.1742 31.1015 20.6803V21.5443C31.1015 21.9916 31.4642 22.3542 31.9115 22.3542C32.3588 22.3542 32.7214 21.9916 32.7214 21.5443V21.4903H35.3352C34.6754 27.878 30.2921 32.8294 25 32.8294C19.7079 32.8294 15.3246 27.878 14.6648 21.4903ZM33.0975 36.3686C31.6279 39.3099 30.5532 41.4597 29.9686 42.6282C28.7103 41.292 28.0304 40.3093 27.7092 39.7864L32.0593 34.7112L32.7852 35.1951C33.1694 35.4514 33.3038 35.9558 33.0975 36.3686ZM35.7679 30.1037C36.39 31.5227 37.0309 32.9867 37.1342 35.5105L34.4192 34.6055C34.2341 34.3116 33.9884 34.0506 33.6838 33.8475L32.7214 33.2058V31.0475C32.7214 31.0435 32.7208 31.0397 32.7208 31.0359C33.5773 30.1639 34.3332 29.1506 34.9631 28.0251C35.1884 28.7793 35.4802 29.4473 35.7679 30.1037ZM11.987 16.3607C11.987 12.8069 13.3921 9.12095 15.842 6.24806C18.387 3.2635 21.6394 1.61987 25 1.61987C28.3606 1.61987 31.613 3.2635 34.158 6.24806C36.6079 9.12095 38.013 12.8069 38.013 16.3607C38.013 18.147 37.6992 19.1906 37.0347 20.2718C37.0385 20.1205 37.041 19.9688 37.041 19.8164C37.041 18.2854 36.8288 16.7371 36.4103 15.2144C36.3166 14.8739 36.0132 14.6333 35.6604 14.6197C34.6935 14.5826 31.443 14.2236 28.057 13.024C22.7675 11.1498 20.5858 8.45054 19.687 6.5162C19.4985 6.11058 19.017 5.93445 18.6112 6.12289C18.2055 6.31145 18.0295 6.79309 18.2179 7.1987C18.5435 7.89946 18.946 8.56447 19.4248 9.19363C17.1991 10.5303 12.959 14.115 12.959 19.8164C12.959 19.9631 12.9612 20.1091 12.9648 20.2546C12.3136 19.1732 11.987 18.0984 11.987 16.3607ZM17.2148 35.1952L17.9407 34.7113L22.2907 39.7863C21.9687 40.3108 21.2891 41.2929 20.0315 42.6283C19.4469 41.4597 18.3724 39.3099 16.9026 36.3687C16.6962 35.9558 16.8306 35.4514 17.2148 35.1952ZM6.80346 47.4622V43.0982C6.80346 41.3497 7.84115 39.7729 9.44698 39.0812L10.5536 38.6046L11.2711 40.8022C11.3576 41.0671 11.5742 41.2689 11.8446 41.3365L14.1853 41.9217L13.095 43.5572C12.9324 43.8011 12.9143 44.1138 13.0476 44.3748L15.093 48.3801H12.851V46.5983C12.851 46.151 12.4883 45.7883 12.041 45.7883C11.5937 45.7883 11.2311 46.151 11.2311 46.5983V48.3801H7.72139C7.21523 48.3801 6.80346 47.9684 6.80346 47.4622ZM43.1965 47.4622C43.1965 47.9684 42.7848 48.3801 42.2786 48.3801H38.7689V46.5983C38.7689 46.151 38.4063 45.7883 37.959 45.7883C37.5117 45.7883 37.149 46.151 37.149 46.5983V48.3801H34.907L36.9524 44.3748C37.0858 44.1138 37.0676 43.8011 36.905 43.5572L35.8146 41.9217L38.1553 41.3365C38.4257 41.269 38.6423 41.0671 38.7288 40.8022L39.4463 38.6046L40.5529 39.0812C42.1589 39.7729 43.1965 41.3497 43.1965 43.0982V47.4622Z" fill="#10A58E"/>
<path d="M21.0887 28.2376C22.0486 28.8909 23.4743 29.2656 25 29.2656C26.5257 29.2656 27.9514 28.8909 28.9113 28.2376C29.2812 27.9859 29.377 27.4821 29.1253 27.1124C28.8735 26.7425 28.3698 26.6469 28 26.8984C27.3123 27.3664 26.1908 27.6457 24.9999 27.6457C23.809 27.6457 22.6875 27.3664 21.9998 26.8984C21.6299 26.6468 21.1262 26.7426 20.8745 27.1124C20.623 27.4821 20.7188 27.9859 21.0887 28.2376Z" fill="#10A58E"/>
</svg>
