<svg width="137" height="57" viewBox="0 0 137 57" fill="none" xmlns="http://www.w3.org/2000/svg">
<path d="M1.87598 31.0908C1.87598 30.9137 1.88704 30.6979 1.90918 30.4434C1.94238 30.1888 1.97005 29.9785 1.99219 29.8125L4.93066 8.39648L2.82227 7.68262L3.1543 6.30469L8.69922 5.60742L9.5293 6.05566L6.3252 29.5635C6.26986 29.9508 6.27539 30.2607 6.3418 30.4932C6.41927 30.7145 6.56868 30.8252 6.79004 30.8252C6.95605 30.8252 7.15527 30.7699 7.3877 30.6592C7.63118 30.5374 7.98535 30.2829 8.4502 29.8955L8.93164 30.9248C8.85417 31.0465 8.69368 31.2402 8.4502 31.5059C8.20671 31.7715 7.89681 32.0426 7.52051 32.3193C7.15527 32.585 6.72363 32.8174 6.22559 33.0166C5.73861 33.2269 5.20182 33.332 4.61523 33.332C4.22786 33.332 3.86816 33.2878 3.53613 33.1992C3.2041 33.1217 2.91634 32.9945 2.67285 32.8174C2.42936 32.6403 2.23568 32.4079 2.0918 32.1201C1.94792 31.8324 1.87598 31.4893 1.87598 31.0908ZM16.1035 10.6377C15.7383 10.6377 15.3841 10.5768 15.041 10.4551C14.6979 10.3333 14.3936 10.1618 14.1279 9.94043C13.8623 9.70801 13.6465 9.43132 13.4805 9.11035C13.3255 8.77832 13.248 8.40755 13.248 7.99805C13.248 7.54427 13.3477 7.1237 13.5469 6.73633C13.7461 6.34896 14.0062 6.01693 14.3271 5.74023C14.6592 5.45247 15.0244 5.23112 15.4229 5.07617C15.8324 4.91016 16.2363 4.82715 16.6348 4.82715C17.1328 4.82715 17.5589 4.89909 17.9131 5.04297C18.2673 5.18685 18.5605 5.38053 18.793 5.62402C19.0254 5.85645 19.1969 6.13867 19.3076 6.4707C19.4183 6.79167 19.4736 7.13477 19.4736 7.5C19.4736 7.97591 19.374 8.40755 19.1748 8.79492C18.9867 9.18229 18.7321 9.51432 18.4111 9.79102C18.1012 10.0566 17.7415 10.2669 17.332 10.4219C16.9336 10.5658 16.5241 10.6377 16.1035 10.6377ZM11.8701 31.1074L14.3604 30.6758V18.9551L12.1689 17.0791V15.751L17.8965 13.9746L19.0088 14.3564V30.709L21.5322 31.1074V33H11.8701V31.1074ZM24.1885 31.1074L26.3467 30.7256V18.6729L24.0391 17.2119V15.585L29.4346 13.9746L30.4639 14.3066V16.7139C30.8734 16.3376 31.3438 15.9834 31.875 15.6514C32.4173 15.3193 32.9873 15.0316 33.585 14.7881C34.1937 14.5446 34.8135 14.3509 35.4443 14.207C36.0752 14.0632 36.695 13.9857 37.3037 13.9746C38.3441 13.9635 39.2129 14.1185 39.9102 14.4395C40.6185 14.7493 41.1829 15.2253 41.6035 15.8672C42.0352 16.498 42.3395 17.2949 42.5166 18.2578C42.6937 19.2096 42.7822 20.3219 42.7822 21.5947V30.709L45.2559 31.1074V33H35.6436V31.1074L38.0674 30.6758V22.2754C38.0674 21.3346 38.0231 20.5378 37.9346 19.8848C37.846 19.2318 37.6689 18.7061 37.4033 18.3076C37.1488 17.8981 36.7891 17.6104 36.3242 17.4443C35.8594 17.2673 35.2451 17.1842 34.4814 17.1953C34.2712 17.2064 34.0221 17.2396 33.7344 17.2949C33.4577 17.3392 33.1644 17.4111 32.8545 17.5107C32.5446 17.6104 32.2347 17.7321 31.9248 17.876C31.6149 18.0199 31.3271 18.1859 31.0615 18.374V30.6924L33.2861 31.1074V33H24.1885V31.1074ZM49.7217 17.0127H47.1982V15.4023C47.5745 15.3249 47.9121 15.2529 48.2109 15.1865C48.5208 15.109 48.792 15.026 49.0244 14.9375C49.2679 14.8379 49.4837 14.7217 49.6719 14.5889C49.8711 14.4561 50.0482 14.279 50.2031 14.0576C50.3359 13.8916 50.4743 13.6592 50.6182 13.3604C50.7731 13.0615 50.9225 12.7295 51.0664 12.3643C51.2214 11.999 51.3652 11.6117 51.498 11.2021C51.6419 10.7926 51.7692 10.3887 51.8799 9.99023H54.1709V14.4229H59.7988V17.0127H54.3203V24.0684C54.3203 25.4629 54.3424 26.5807 54.3867 27.4219C54.4421 28.263 54.5417 28.9105 54.6855 29.3643C54.8405 29.818 55.0452 30.1169 55.2998 30.2607C55.5544 30.4046 55.8919 30.4766 56.3125 30.4766C56.556 30.4766 56.8271 30.46 57.126 30.4268C57.4359 30.3825 57.7347 30.3327 58.0225 30.2773C58.3102 30.2109 58.5758 30.139 58.8193 30.0615C59.0739 29.973 59.2731 29.8844 59.417 29.7959L60.1309 31.5059C59.8763 31.7826 59.5277 32.0371 59.085 32.2695C58.6423 32.502 58.1442 32.7012 57.5908 32.8672C57.0485 33.0332 56.473 33.1605 55.8643 33.249C55.2666 33.3486 54.6745 33.3984 54.0879 33.3984C53.2799 33.3984 52.5993 33.2878 52.0459 33.0664C51.4925 32.8561 51.0443 32.5296 50.7012 32.0869C50.3581 31.6331 50.109 31.0576 49.9541 30.3604C49.7992 29.6631 49.7217 28.833 49.7217 27.8701V17.0127ZM62.4385 24.002C62.4385 22.5853 62.6654 21.2627 63.1191 20.0342C63.5729 18.8057 64.2204 17.7432 65.0615 16.8467C65.9137 15.9391 66.9375 15.2253 68.1328 14.7051C69.3392 14.1738 70.6895 13.9027 72.1836 13.8916C73.3678 13.8805 74.4027 14.041 75.2881 14.373C76.1735 14.694 76.9095 15.1589 77.4961 15.7676C78.0938 16.3652 78.5475 17.0957 78.8574 17.959C79.1673 18.8112 79.3444 19.763 79.3887 20.8145C79.4108 21.5117 79.3942 22.126 79.3389 22.6572C79.2835 23.1774 79.2282 23.6533 79.1729 24.085H67.2695C67.2695 24.1182 67.2695 24.1514 67.2695 24.1846C67.2806 24.2067 67.2861 24.2288 67.2861 24.251C67.3525 25.391 67.5407 26.3594 67.8506 27.1562C68.1715 27.9531 68.5866 28.6061 69.0957 29.1152C69.6159 29.6133 70.2135 29.9785 70.8887 30.2109C71.5638 30.4434 72.2832 30.5596 73.0469 30.5596C73.4564 30.5596 73.888 30.5374 74.3418 30.4932C74.8066 30.4489 75.2604 30.3825 75.7031 30.2939C76.1569 30.2054 76.5941 30.0947 77.0146 29.9619C77.4352 29.8291 77.8226 29.6742 78.1768 29.4971L78.9404 31.29C78.5641 31.611 78.0938 31.9098 77.5293 32.1865C76.9648 32.4521 76.3506 32.679 75.6865 32.8672C75.0225 33.0553 74.3197 33.1992 73.5781 33.2988C72.8477 33.3984 72.1172 33.4427 71.3867 33.4316C69.959 33.4206 68.6862 33.1937 67.5684 32.751C66.4616 32.3083 65.5264 31.6829 64.7627 30.875C63.999 30.0671 63.418 29.0876 63.0195 27.9365C62.6322 26.7744 62.4385 25.4629 62.4385 24.002ZM74.6738 21.7275C74.707 21.2516 74.7292 20.7591 74.7402 20.25C74.7513 19.7298 74.7181 19.2318 74.6406 18.7559C74.5742 18.2799 74.4414 17.8428 74.2422 17.4443C74.054 17.0459 73.7718 16.7194 73.3955 16.4648C73.1631 16.3099 72.8919 16.1882 72.582 16.0996C72.2721 16.0111 71.918 15.9668 71.5195 15.9668C70.8665 15.9668 70.291 16.1162 69.793 16.415C69.306 16.7139 68.891 17.1234 68.5479 17.6436C68.2048 18.1637 67.9281 18.778 67.7178 19.4863C67.5186 20.1836 67.3857 20.9307 67.3193 21.7275H74.6738ZM82.8252 31.1074L84.9834 30.7256V18.6729L82.6758 17.2119V15.585L88.0713 13.9746L89.1006 14.3066V16.7139C89.5101 16.3376 89.9805 15.9834 90.5117 15.6514C91.054 15.3193 91.624 15.0316 92.2217 14.7881C92.8304 14.5446 93.4502 14.3509 94.0811 14.207C94.7119 14.0632 95.3317 13.9857 95.9404 13.9746C96.9808 13.9635 97.8496 14.1185 98.5469 14.4395C99.2552 14.7493 99.8197 15.2253 100.24 15.8672C100.672 16.498 100.976 17.2949 101.153 18.2578C101.33 19.2096 101.419 20.3219 101.419 21.5947V30.709L103.893 31.1074V33H94.2803V31.1074L96.7041 30.6758V22.2754C96.7041 21.3346 96.6598 20.5378 96.5713 19.8848C96.4827 19.2318 96.3057 18.7061 96.04 18.3076C95.7855 17.8981 95.4258 17.6104 94.9609 17.4443C94.4961 17.2673 93.8818 17.1842 93.1182 17.1953C92.9079 17.2064 92.6589 17.2396 92.3711 17.2949C92.0944 17.3392 91.8011 17.4111 91.4912 17.5107C91.1813 17.6104 90.8714 17.7321 90.5615 17.876C90.2516 18.0199 89.9639 18.1859 89.6982 18.374V30.6924L91.9229 31.1074V33H82.8252V31.1074ZM105.868 29.3477C106.045 29.4915 106.283 29.6576 106.582 29.8457C106.892 30.0228 107.235 30.1943 107.611 30.3604C107.999 30.5153 108.419 30.6481 108.873 30.7588C109.338 30.8695 109.819 30.9248 110.317 30.9248C110.638 30.9248 110.97 30.8971 111.313 30.8418C111.668 30.7865 111.989 30.6813 112.276 30.5264C112.564 30.3604 112.802 30.1335 112.99 29.8457C113.178 29.5579 113.272 29.1816 113.272 28.7168C113.272 28.3184 113.195 27.9531 113.04 27.6211C112.885 27.2891 112.675 26.9736 112.409 26.6748C112.144 26.3649 111.828 26.0716 111.463 25.7949C111.109 25.5072 110.727 25.2139 110.317 24.915C109.985 24.6715 109.62 24.3727 109.222 24.0186C108.834 23.6533 108.469 23.2327 108.126 22.7568C107.794 22.2809 107.517 21.7441 107.296 21.1465C107.075 20.5488 106.964 19.8903 106.964 19.1709C106.964 18.2855 107.152 17.5052 107.528 16.8301C107.905 16.1439 108.414 15.5684 109.056 15.1035C109.698 14.6387 110.445 14.29 111.297 14.0576C112.16 13.8141 113.073 13.6924 114.036 13.6924C114.479 13.6924 114.927 13.7145 115.381 13.7588C115.835 13.792 116.255 13.8418 116.643 13.9082C117.03 13.9635 117.373 14.0299 117.672 14.1074C117.971 14.1738 118.187 14.2402 118.319 14.3066L117.655 17.4111C117.578 17.3115 117.434 17.1787 117.224 17.0127C117.024 16.8467 116.77 16.6862 116.46 16.5312C116.161 16.3763 115.807 16.2435 115.397 16.1328C114.999 16.0111 114.556 15.9502 114.069 15.9502C113.715 15.9502 113.372 15.9889 113.04 16.0664C112.719 16.1328 112.426 16.249 112.16 16.415C111.895 16.5811 111.673 16.7969 111.496 17.0625C111.33 17.3281 111.23 17.6546 111.197 18.042C111.175 18.4294 111.225 18.7946 111.347 19.1377C111.468 19.4808 111.651 19.8128 111.895 20.1338C112.149 20.4548 112.453 20.7757 112.808 21.0967C113.173 21.4066 113.571 21.722 114.003 22.043C114.435 22.375 114.861 22.7347 115.281 23.1221C115.713 23.4984 116.095 23.9245 116.427 24.4004C116.759 24.8652 117.024 25.3854 117.224 25.9609C117.434 26.5254 117.539 27.1562 117.539 27.8535C117.539 28.8053 117.334 29.6243 116.925 30.3105C116.526 30.9967 115.99 31.5667 115.314 32.0205C114.639 32.4632 113.865 32.7897 112.99 33C112.116 33.2214 111.214 33.332 110.284 33.332C109.764 33.332 109.233 33.2988 108.69 33.2324C108.159 33.166 107.656 33.083 107.18 32.9834C106.704 32.8838 106.289 32.7731 105.935 32.6514C105.58 32.5186 105.326 32.3913 105.171 32.2695L105.868 29.3477ZM120.594 25.8613C120.605 24.7546 120.732 23.6865 120.976 22.6572C121.219 21.6169 121.557 20.6484 121.988 19.752C122.431 18.8444 122.962 18.0199 123.582 17.2783C124.202 16.5368 124.888 15.9004 125.641 15.3691C126.404 14.8379 127.223 14.4284 128.098 14.1406C128.983 13.8418 129.907 13.6924 130.87 13.6924C131.744 13.6924 132.497 13.7975 133.128 14.0078C133.77 14.2181 134.296 14.5114 134.705 14.8877C135.126 15.264 135.436 15.7067 135.635 16.2158C135.845 16.7139 135.956 17.2562 135.967 17.8428C135.978 18.7282 135.806 19.5306 135.452 20.25C135.109 20.9583 134.644 21.5892 134.058 22.1426C133.471 22.696 132.801 23.1774 132.049 23.5869C131.296 23.9854 130.521 24.3174 129.725 24.583C128.928 24.8376 128.142 25.0368 127.367 25.1807C126.604 25.3135 125.917 25.3854 125.309 25.3965C125.275 26.0938 125.314 26.7633 125.425 27.4053C125.547 28.0361 125.74 28.6006 126.006 29.0986C126.271 29.5856 126.62 29.973 127.052 30.2607C127.494 30.5485 128.026 30.6924 128.646 30.6924C129.719 30.6924 130.693 30.46 131.567 29.9951C132.453 29.5192 133.244 28.916 133.941 28.1855L134.854 29.7295C134.622 30.0726 134.285 30.4544 133.842 30.875C133.41 31.2956 132.879 31.6885 132.248 32.0537C131.628 32.4189 130.92 32.7233 130.123 32.9668C129.337 33.2103 128.479 33.332 127.55 33.332C126.299 33.332 125.231 33.1217 124.346 32.7012C123.46 32.2806 122.735 31.7217 122.171 31.0244C121.618 30.3271 121.214 29.5303 120.959 28.6338C120.704 27.7373 120.583 26.8132 120.594 25.8613ZM125.342 23.4873C125.729 23.4652 126.15 23.3988 126.604 23.2881C127.068 23.1774 127.533 23.0169 127.998 22.8066C128.474 22.5964 128.928 22.3473 129.359 22.0596C129.791 21.7607 130.173 21.4176 130.505 21.0303C130.848 20.6429 131.119 20.2168 131.318 19.752C131.518 19.276 131.612 18.7614 131.601 18.208C131.578 17.389 131.418 16.7858 131.119 16.3984C130.82 16 130.405 15.8008 129.874 15.8008C129.376 15.8008 128.922 15.9225 128.513 16.166C128.114 16.4095 127.755 16.736 127.434 17.1455C127.113 17.5439 126.83 18.0088 126.587 18.54C126.354 19.0713 126.15 19.6247 125.973 20.2002C125.807 20.7646 125.668 21.3346 125.558 21.9102C125.458 22.4746 125.386 23.0003 125.342 23.4873Z" fill="white"/>
<path d="M0.275 52L3.234 44.3H4.213L7.139 52H6.193L5.401 49.877H1.969L1.166 52H0.275ZM3.036 47.072L2.288 49.03H5.082L4.323 47.017C4.235 46.7823 4.12867 46.4927 4.004 46.148C3.88667 45.796 3.78033 45.4733 3.685 45.18C3.58233 45.4953 3.476 45.8143 3.366 46.137C3.256 46.4597 3.146 46.7713 3.036 47.072ZM10.1287 52L7.79668 44.3H8.73168L10.2167 49.371C10.2973 49.6423 10.3633 49.8917 10.4147 50.119C10.4733 50.3463 10.5247 50.57 10.5687 50.79C10.6347 50.5627 10.6933 50.372 10.7447 50.218C10.796 50.0567 10.8437 49.91 10.8877 49.778C10.939 49.646 10.9977 49.4957 11.0637 49.327L12.3617 46.049H13.1757L14.4957 49.371C14.5983 49.6203 14.6863 49.855 14.7597 50.075C14.8403 50.2877 14.9173 50.5187 14.9907 50.768C15.0273 50.592 15.0567 50.449 15.0787 50.339C15.1007 50.2217 15.13 50.0933 15.1667 49.954C15.2107 49.8073 15.273 49.5947 15.3537 49.316L16.8387 44.3H17.7737L15.4307 52H14.7157L12.7357 47.303L10.8327 52H10.1287ZM18.4336 52L21.3926 44.3H22.3716L25.2976 52H24.3516L23.5596 49.877H20.1276L19.3246 52H18.4336ZM21.1946 47.072L20.4466 49.03H23.2406L22.4816 47.017C22.3936 46.7823 22.2873 46.4927 22.1626 46.148C22.0453 45.796 21.9389 45.4733 21.8436 45.18C21.7409 45.4953 21.6346 45.8143 21.5246 46.137C21.4146 46.4597 21.3046 46.7713 21.1946 47.072ZM27.2537 52V44.3H28.1227V48.359L32.2257 44.3H33.3917L30.0917 47.512L33.5017 52H32.4127L29.4757 48.106L28.1227 49.437V52H27.2537ZM35.5166 52V44.3H40.1806V45.147H36.3856V47.611H39.5646V48.458H36.3856V51.153H40.1586V52H35.5166ZM48.3963 52V48.59L45.3603 44.3H46.4163L48.8363 47.765L51.0693 44.3H52.0703L49.2543 48.568V52H48.3963ZM56.7489 52.11C56.2062 52.11 55.7039 52.0147 55.2419 51.824C54.7799 51.626 54.3802 51.351 54.0429 50.999C53.7056 50.6397 53.4416 50.2217 53.2509 49.745C53.0676 49.261 52.9759 48.733 52.9759 48.161C52.9759 47.5963 53.0676 47.0757 53.2509 46.599C53.4416 46.115 53.7056 45.697 54.0429 45.345C54.3802 44.9857 54.7799 44.707 55.2419 44.509C55.7039 44.311 56.2062 44.212 56.7489 44.212C57.2916 44.212 57.7939 44.311 58.2559 44.509C58.7179 44.707 59.1176 44.9857 59.4549 45.345C59.7996 45.697 60.0636 46.115 60.2469 46.599C60.4376 47.0757 60.5329 47.5963 60.5329 48.161C60.5329 48.733 60.4376 49.261 60.2469 49.745C60.0636 50.2217 59.7996 50.6397 59.4549 50.999C59.1176 51.351 58.7179 51.626 58.2559 51.824C57.7939 52.0147 57.2916 52.11 56.7489 52.11ZM56.7489 51.252C57.3062 51.252 57.8012 51.12 58.2339 50.856C58.6666 50.592 59.0076 50.229 59.2569 49.767C59.5062 49.2977 59.6309 48.7623 59.6309 48.161C59.6309 47.567 59.5062 47.039 59.2569 46.577C59.0076 46.1077 58.6666 45.741 58.2339 45.477C57.8012 45.2057 57.3062 45.07 56.7489 45.07C56.1916 45.07 55.6966 45.2057 55.2639 45.477C54.8312 45.741 54.4902 46.1077 54.2409 46.577C53.9989 47.039 53.8779 47.567 53.8779 48.161C53.8779 48.7623 53.9989 49.2977 54.2409 49.767C54.4902 50.229 54.8312 50.592 55.2639 50.856C55.6966 51.12 56.1916 51.252 56.7489 51.252ZM66.1666 52.11C65.602 52.11 65.074 52.011 64.5826 51.813C64.0986 51.615 63.6733 51.34 63.3066 50.988C62.9473 50.6287 62.665 50.2107 62.4596 49.734C62.2616 49.2573 62.1626 48.733 62.1626 48.161C62.1626 47.6037 62.2616 47.0867 62.4596 46.61C62.6576 46.1333 62.9363 45.719 63.2956 45.367C63.655 45.0077 64.073 44.729 64.5496 44.531C65.0336 44.333 65.5543 44.234 66.1116 44.234C66.5003 44.234 66.8816 44.2927 67.2556 44.41C67.6296 44.52 67.9706 44.674 68.2786 44.872C68.5866 45.0627 68.836 45.2863 69.0266 45.543L68.4546 46.137C68.1466 45.8143 67.7836 45.5613 67.3656 45.378C66.9476 45.1873 66.5333 45.092 66.1226 45.092C65.5433 45.092 65.0226 45.2277 64.5606 45.499C64.0986 45.763 63.732 46.126 63.4606 46.588C63.1966 47.05 63.0646 47.5743 63.0646 48.161C63.0646 48.7477 63.204 49.2757 63.4826 49.745C63.7613 50.207 64.1353 50.5737 64.6046 50.845C65.0813 51.1163 65.613 51.252 66.1996 51.252C66.6616 51.252 67.0796 51.164 67.4536 50.988C67.8276 50.8047 68.1246 50.559 68.3446 50.251C68.5646 49.943 68.6746 49.5983 68.6746 49.217V49.063H66.1556V48.194H69.5436C69.551 48.2893 69.5583 48.3993 69.5656 48.524C69.5803 48.6413 69.5876 48.7513 69.5876 48.854C69.5876 49.492 69.4336 50.0567 69.1256 50.548C68.825 51.032 68.4143 51.4133 67.8936 51.692C67.3803 51.9707 66.8046 52.11 66.1666 52.11ZM70.7416 52L73.7006 44.3H74.6796L77.6056 52H76.6596L75.8676 49.877H72.4356L71.6326 52H70.7416ZM73.5026 47.072L72.7546 49.03H75.5486L74.7896 47.017C74.7016 46.7823 74.5953 46.4927 74.4706 46.148C74.3533 45.796 74.2469 45.4733 74.1516 45.18C74.0489 45.4953 73.9426 45.8143 73.8326 46.137C73.7226 46.4597 73.6126 46.7713 73.5026 47.072ZM83.1947 52V44.3H88.0457V45.147H84.0637V47.721H87.5287V48.568H84.0637V52H83.1947ZM90.276 52V44.3H94.94V45.147H91.145V47.611H94.324V48.458H91.145V51.153H94.918V52H90.276ZM99.6767 52.11C98.474 52.11 97.5353 51.6187 96.8607 50.636L97.4657 49.965C97.8103 50.4563 98.1623 50.801 98.5217 50.999C98.8883 51.197 99.2953 51.296 99.7427 51.296C100.08 51.296 100.381 51.241 100.645 51.131C100.916 51.021 101.129 50.8707 101.283 50.68C101.437 50.482 101.514 50.2547 101.514 49.998C101.514 49.58 101.338 49.2647 100.986 49.052C100.641 48.8393 100.157 48.6597 99.5337 48.513C98.7857 48.337 98.2137 48.084 97.8177 47.754C97.429 47.4167 97.2347 46.9363 97.2347 46.313C97.2347 45.9097 97.3447 45.5503 97.5647 45.235C97.792 44.9197 98.0963 44.6703 98.4777 44.487C98.859 44.3037 99.288 44.212 99.7647 44.212C100.359 44.212 100.861 44.333 101.272 44.575C101.682 44.817 102.02 45.1507 102.284 45.576L101.668 46.192C101.433 45.8253 101.158 45.5393 100.843 45.334C100.527 45.1287 100.161 45.026 99.7427 45.026C99.266 45.026 98.8737 45.147 98.5657 45.389C98.265 45.6237 98.1147 45.928 98.1147 46.302C98.1147 46.6687 98.254 46.9547 98.5327 47.16C98.8113 47.3653 99.2697 47.5377 99.9077 47.677C100.67 47.853 101.275 48.1097 101.723 48.447C102.17 48.7843 102.394 49.2463 102.394 49.833C102.394 50.2803 102.28 50.6763 102.053 51.021C101.825 51.3657 101.506 51.6333 101.096 51.824C100.692 52.0147 100.219 52.11 99.6767 52.11ZM106.083 52V45.147H103.872V44.3H109.229V45.147H106.952V52H106.083ZM110.877 52V51.175H112.12V45.125H110.877V44.3H114.232V45.125H112.989V51.175H114.232V52H110.877ZM118.812 52L115.831 44.3H116.81L118.724 49.294C118.856 49.646 118.966 49.9467 119.054 50.196C119.142 50.438 119.23 50.6837 119.318 50.933C119.399 50.669 119.483 50.4123 119.571 50.163C119.659 49.9137 119.769 49.613 119.901 49.261L121.793 44.3H122.783L119.714 52H118.812ZM123.041 52L126 44.3H126.979L129.905 52H128.959L128.167 49.877H124.735L123.932 52H123.041ZM125.802 47.072L125.054 49.03H127.848L127.089 47.017C127.001 46.7823 126.895 46.4927 126.77 46.148C126.653 45.796 126.546 45.4733 126.451 45.18C126.348 45.4953 126.242 45.8143 126.132 46.137C126.022 46.4597 125.912 46.7713 125.802 47.072ZM131.861 52V44.3H132.73V51.153H136.426V52H131.861Z" fill="white"/>
</svg>
