<svg width="134" height="58" viewBox="0 0 134 58" fill="none" xmlns="http://www.w3.org/2000/svg">
<path d="M6.392 30.6C6.36933 30.6907 6.358 30.8153 6.358 30.974C6.358 31.5407 6.562 31.824 6.97 31.824C7.174 31.824 7.38933 31.7673 7.616 31.654C7.86533 31.5407 8.194 31.3027 8.602 30.94L9.044 31.994C8.68133 32.5153 8.14867 33.0367 7.446 33.558C6.74333 34.0793 5.83667 34.34 4.726 34.34C3.86467 34.34 3.162 34.17 2.618 33.83C2.074 33.4673 1.79067 32.912 1.768 32.164C1.768 32.0733 1.81333 31.6653 1.904 30.94L4.862 9.214L2.72 8.534L3.026 7.276L8.806 6.596L9.588 7.038L6.392 30.6ZM15.9354 12.002C15.1194 12.002 14.4734 11.764 13.9974 11.288C13.5214 10.812 13.2834 10.2 13.2834 9.452C13.2834 8.59066 13.5554 7.87667 14.0994 7.31C14.6434 6.74333 15.3687 6.46 16.2754 6.46C17.182 6.46 17.8734 6.70933 18.3494 7.208C18.8254 7.684 19.0634 8.28467 19.0634 9.01C19.0634 9.91667 18.7914 10.642 18.2474 11.186C17.7034 11.73 16.944 12.002 15.9694 12.002H15.9354ZM14.1334 18.326L11.7194 17.68V15.402L17.9414 14.654H18.0094L18.9614 15.334V31.688L21.2394 31.96V34H11.7534V31.96L14.1334 31.654V18.326ZM25.5805 18.326L23.4045 17.714V15.368L29.0485 14.654H29.1505L30.0005 15.334V16.66L29.9665 17.476C30.7598 16.728 31.7912 16.082 33.0605 15.538C34.3298 14.994 35.6105 14.722 36.9025 14.722C38.2852 14.722 39.3618 14.9827 40.1325 15.504C40.9258 16.0027 41.4925 16.796 41.8325 17.884C42.1725 18.972 42.3425 20.4453 42.3425 22.304V31.688L44.4165 31.96V34H35.6445V31.96L37.4805 31.688V22.304C37.4805 21.1253 37.4012 20.2073 37.2425 19.55C37.0838 18.87 36.7892 18.3827 36.3585 18.088C35.9505 17.7707 35.3612 17.612 34.5905 17.612C33.2985 17.612 31.9158 18.1673 30.4425 19.278V31.654L32.4825 31.96V34H23.6085V31.96L25.5805 31.654V18.326ZM52.5311 34.306C51.1031 34.306 50.0491 33.9773 49.3691 33.32C48.6891 32.6627 48.3491 31.62 48.3491 30.192V17.714H46.1391V15.946C46.3204 15.878 46.6491 15.7647 47.1251 15.606C47.6011 15.4247 47.9637 15.2773 48.2131 15.164C48.5984 14.8693 48.9271 14.3593 49.1991 13.634C49.4031 13.158 49.7771 11.9793 50.3211 10.098H53.0411L53.1771 15.096H58.3791V17.714H53.2111V27.268C53.2111 28.5373 53.2451 29.4327 53.3131 29.954C53.3811 30.4753 53.5284 30.8153 53.7551 30.974C53.9817 31.11 54.3784 31.178 54.9451 31.178C55.5117 31.178 56.1011 31.1213 56.7131 31.008C57.3251 30.872 57.8351 30.7133 58.2431 30.532L58.8891 32.436C58.2544 32.912 57.3251 33.3427 56.1011 33.728C54.8771 34.1133 53.6871 34.306 52.5311 34.306ZM69.266 34.374C66.274 34.374 64.0413 33.5013 62.568 31.756C61.1173 29.988 60.392 27.5853 60.392 24.548C60.392 22.508 60.766 20.74 61.514 19.244C62.2846 17.748 63.3613 16.6033 64.744 15.81C66.1266 15.0167 67.7246 14.62 69.538 14.62C71.8046 14.62 73.55 15.2207 74.774 16.422C75.998 17.6007 76.6326 19.2893 76.678 21.488C76.678 22.984 76.5873 24.0947 76.406 24.82H65.356C65.4466 26.8827 65.934 28.492 66.818 29.648C67.702 30.7813 68.96 31.348 70.592 31.348C71.476 31.348 72.3826 31.2007 73.312 30.906C74.264 30.6113 75.012 30.26 75.556 29.852L76.406 31.722C75.794 32.3793 74.7966 32.9913 73.414 33.558C72.054 34.102 70.6713 34.374 69.266 34.374ZM71.918 22.78C71.9633 22.1453 71.986 21.658 71.986 21.318C71.986 18.3033 70.9773 16.796 68.96 16.796C67.8493 16.796 66.988 17.238 66.376 18.122C65.764 19.006 65.424 20.5587 65.356 22.78H71.918ZM81.2953 18.326L79.1193 17.714V15.368L84.7633 14.654H84.8653L85.7153 15.334V16.66L85.6813 17.476C86.4747 16.728 87.506 16.082 88.7753 15.538C90.0447 14.994 91.3253 14.722 92.6173 14.722C94 14.722 95.0767 14.9827 95.8473 15.504C96.6407 16.0027 97.2073 16.796 97.5473 17.884C97.8873 18.972 98.0573 20.4453 98.0573 22.304V31.688L100.131 31.96V34H91.3593V31.96L93.1953 31.688V22.304C93.1953 21.1253 93.116 20.2073 92.9573 19.55C92.7987 18.87 92.504 18.3827 92.0733 18.088C91.6653 17.7707 91.076 17.612 90.3053 17.612C89.0133 17.612 87.6307 18.1673 86.1573 19.278V31.654L88.1973 31.96V34H79.3233V31.96L81.2953 31.654V18.326Z" fill="#0E1723"/>
<path d="M113.924 18.36C113.652 18.0427 113.199 17.714 112.564 17.374C111.952 17.034 111.238 16.864 110.422 16.864C109.515 16.864 108.779 17.068 108.212 17.476C107.668 17.8613 107.396 18.4393 107.396 19.21C107.396 19.89 107.623 20.502 108.076 21.046C108.552 21.5673 109.311 22.202 110.354 22.95C111.51 23.8113 112.394 24.65 113.006 25.466C113.618 26.2593 113.924 27.2793 113.924 28.526C113.924 29.7727 113.584 30.838 112.904 31.722C112.224 32.5833 111.317 33.2407 110.184 33.694C109.051 34.1247 107.804 34.34 106.444 34.34C105.424 34.34 104.381 34.2267 103.316 34C102.251 33.7507 101.559 33.49 101.242 33.218L101.922 30.328C102.398 30.736 103.044 31.1213 103.86 31.484C104.676 31.8467 105.526 32.028 106.41 32.028C107.249 32.028 107.963 31.8353 108.552 31.45C109.164 31.0647 109.47 30.464 109.47 29.648C109.47 28.9453 109.209 28.3107 108.688 27.744C108.167 27.1773 107.385 26.5313 106.342 25.806C105.39 25.1487 104.585 24.378 103.928 23.494C103.293 22.5873 102.976 21.4993 102.976 20.23C102.976 19.142 103.282 18.1787 103.894 17.34C104.529 16.5013 105.39 15.8553 106.478 15.402C107.589 14.926 108.858 14.688 110.286 14.688C111.125 14.688 111.975 14.756 112.836 14.892C113.697 15.028 114.275 15.1753 114.57 15.334L113.924 18.36ZM131.222 30.6C130.632 31.5293 129.669 32.402 128.332 33.218C127.017 34.034 125.487 34.442 123.742 34.442C122.11 34.442 120.761 34.0907 119.696 33.388C118.653 32.6853 117.894 31.7673 117.418 30.634C116.942 29.5007 116.704 28.2653 116.704 26.928C116.704 24.6613 117.157 22.5987 118.064 20.74C118.993 18.8587 120.251 17.374 121.838 16.286C123.424 15.198 125.192 14.654 127.142 14.654C128.887 14.654 130.179 15.062 131.018 15.878C131.879 16.6713 132.31 17.714 132.31 19.006C132.31 20.638 131.72 21.998 130.542 23.086C129.363 24.174 127.946 24.99 126.292 25.534C124.637 26.0553 123.073 26.3387 121.6 26.384C121.554 28.016 121.815 29.3307 122.382 30.328C122.971 31.3253 123.855 31.824 125.034 31.824C126.983 31.824 128.751 30.9173 130.338 29.104L131.222 30.6ZM126.122 16.762C124.784 16.762 123.73 17.5667 122.96 19.176C122.189 20.7853 121.736 22.576 121.6 24.548C122.484 24.5027 123.413 24.2647 124.388 23.834C125.385 23.4033 126.212 22.8027 126.87 22.032C127.55 21.2387 127.89 20.332 127.89 19.312C127.89 18.496 127.731 17.8727 127.414 17.442C127.119 16.9887 126.688 16.762 126.122 16.762Z" fill="#10886F"/>
<path d="M1.94434 52.1567H5.65039V53H0.907715V45.1797H1.94434V52.1567ZM11.8024 50.959H8.52607L7.79023 53H6.72676L9.71309 45.1797H10.6154L13.6071 53H12.549L11.8024 50.959ZM8.8376 50.1104H11.4963L10.1643 46.4526L8.8376 50.1104ZM16.5204 50.5347L16.6708 51.5659L16.891 50.6367L18.4379 45.1797H19.308L20.8173 50.6367L21.0321 51.582L21.1986 50.5293L22.4125 45.1797H23.4491L21.5531 53H20.6132L19.0019 47.3013L18.8783 46.7051L18.7548 47.3013L17.0844 53H16.1444L14.2538 45.1797H15.2851L16.5204 50.5347ZM34.1795 50.5186C34.0828 51.3457 33.7767 51.9849 33.261 52.436C32.749 52.8836 32.0669 53.1074 31.2146 53.1074C30.2908 53.1074 29.5496 52.7762 28.991 52.1138C28.436 51.4513 28.1585 50.5651 28.1585 49.4551V48.7031C28.1585 47.9762 28.2874 47.3371 28.5452 46.7856C28.8066 46.2342 29.1754 45.8117 29.6517 45.5181C30.1279 45.2209 30.6793 45.0723 31.306 45.0723C32.1367 45.0723 32.8027 45.305 33.304 45.7705C33.8053 46.2324 34.0971 46.8734 34.1795 47.6934H33.1429C33.0534 47.0703 32.8582 46.6191 32.5574 46.3398C32.2602 46.0605 31.8431 45.9209 31.306 45.9209C30.6471 45.9209 30.1297 46.1644 29.7537 46.6514C29.3813 47.1383 29.1951 47.8312 29.1951 48.73V49.4873C29.1951 50.3359 29.3724 51.0109 29.7269 51.5122C30.0813 52.0135 30.5773 52.2642 31.2146 52.2642C31.7876 52.2642 32.2262 52.1353 32.5306 51.8774C32.8385 51.616 33.0426 51.1631 33.1429 50.5186H34.1795ZM42.1577 49.3423C42.1577 50.1086 42.0288 50.7782 41.771 51.3511C41.5132 51.9204 41.1479 52.3555 40.6753 52.6562C40.2026 52.957 39.6512 53.1074 39.021 53.1074C38.4051 53.1074 37.859 52.957 37.3828 52.6562C36.9066 52.3519 36.536 51.9204 36.271 51.3618C36.0096 50.7996 35.8753 50.1497 35.8682 49.4121V48.8481C35.8682 48.0962 35.9989 47.432 36.2603 46.8555C36.5216 46.279 36.8905 45.8385 37.3667 45.5342C37.8465 45.2262 38.3944 45.0723 39.0103 45.0723C39.6369 45.0723 40.1883 45.2244 40.6646 45.5288C41.1444 45.8296 41.5132 46.2682 41.771 46.8447C42.0288 47.4176 42.1577 48.0854 42.1577 48.8481V49.3423ZM41.1318 48.8374C41.1318 47.91 40.9456 47.1992 40.5732 46.7051C40.2008 46.2074 39.6799 45.9585 39.0103 45.9585C38.3586 45.9585 37.8447 46.2074 37.4688 46.7051C37.0964 47.1992 36.9048 47.8867 36.894 48.7676V49.3423C36.894 50.241 37.082 50.9482 37.458 51.4639C37.8376 51.9759 38.3586 52.2319 39.021 52.2319C39.687 52.2319 40.2026 51.9902 40.5679 51.5068C40.9331 51.0199 41.1211 50.3234 41.1318 49.4175V48.8374ZM50.2648 53H49.2282L45.2912 46.9736V53H44.2546V45.1797H45.2912L49.239 51.2329V45.1797H50.2648V53ZM54.9506 49.5142C54.0661 49.2599 53.4216 48.9484 53.017 48.5796C52.6159 48.2072 52.4154 47.7489 52.4154 47.2046C52.4154 46.5887 52.6607 46.0802 53.1513 45.6792C53.6454 45.2746 54.2864 45.0723 55.0741 45.0723C55.6112 45.0723 56.0893 45.1761 56.5082 45.3838C56.9307 45.5915 57.2566 45.8779 57.4857 46.2432C57.7185 46.6084 57.8349 47.0076 57.8349 47.4409H56.7982C56.7982 46.9683 56.6479 46.5977 56.3471 46.3291C56.0463 46.057 55.622 45.9209 55.0741 45.9209C54.5657 45.9209 54.1682 46.0337 53.8817 46.2593C53.5989 46.4813 53.4574 46.791 53.4574 47.1885C53.4574 47.5072 53.5917 47.7775 53.8603 47.9995C54.1324 48.2179 54.5925 48.4185 55.2406 48.6011C55.8923 48.7837 56.4008 48.986 56.766 49.208C57.1348 49.4264 57.407 49.6825 57.5824 49.9761C57.7615 50.2697 57.851 50.6152 57.851 51.0127C57.851 51.6465 57.6039 52.1549 57.1098 52.5381C56.6156 52.9176 55.955 53.1074 55.1278 53.1074C54.5907 53.1074 54.0894 53.0054 53.6239 52.8013C53.1584 52.5936 52.7986 52.3107 52.5443 51.9526C52.2937 51.5946 52.1684 51.1882 52.1684 50.7334H53.205C53.205 51.2061 53.3786 51.5802 53.726 51.856C54.0769 52.1281 54.5442 52.2642 55.1278 52.2642C55.6721 52.2642 56.0893 52.1532 56.3793 51.9312C56.6693 51.7091 56.8144 51.4066 56.8144 51.0234C56.8144 50.6403 56.6801 50.3449 56.4115 50.1372C56.143 49.9259 55.656 49.7183 54.9506 49.5142ZM65.233 45.1797V50.4971C65.2294 51.2347 64.9967 51.8381 64.5348 52.3071C64.0764 52.7762 63.4534 53.0394 62.6656 53.0967L62.3917 53.1074C61.5359 53.1074 60.8538 52.8765 60.3453 52.4146C59.8369 51.9526 59.579 51.3171 59.5719 50.5078V45.1797H60.5924V50.4756C60.5924 51.0413 60.7481 51.4818 61.0597 51.7969C61.3712 52.1084 61.8152 52.2642 62.3917 52.2642C62.9754 52.2642 63.4212 52.1084 63.7291 51.7969C64.0406 51.4854 64.1964 51.0467 64.1964 50.481V45.1797H65.233ZM68.4471 52.1567H72.1531V53H67.4104V45.1797H68.4471V52.1567ZM77.8003 46.0283H75.2866V53H74.2607V46.0283H71.7524V45.1797H77.8003V46.0283ZM80.6169 53H79.5856V45.1797H80.6169V53ZM89.0678 53H88.0312L84.0941 46.9736V53H83.0575V45.1797H84.0941L88.0419 51.2329V45.1797H89.0678V53ZM97.2232 51.9741C96.9583 52.3537 96.5877 52.6383 96.1114 52.8281C95.6388 53.0143 95.0873 53.1074 94.4571 53.1074C93.8198 53.1074 93.254 52.9588 92.7599 52.6616C92.2657 52.3608 91.8826 51.9347 91.6105 51.3833C91.3419 50.8319 91.204 50.1927 91.1969 49.4658V48.7837C91.1969 47.6056 91.4708 46.6925 92.0187 46.0444C92.5701 45.3963 93.3435 45.0723 94.339 45.0723C95.1554 45.0723 95.8124 45.2817 96.3102 45.7007C96.8079 46.116 97.1122 46.7069 97.2232 47.4731H96.192C95.9986 46.4383 95.3827 45.9209 94.3443 45.9209C93.6533 45.9209 93.1287 46.1644 92.7706 46.6514C92.4161 47.1348 92.2371 47.8366 92.2335 48.7568V49.396C92.2335 50.2733 92.434 50.9715 92.8351 51.4907C93.2361 52.0063 93.7786 52.2642 94.4625 52.2642C94.8492 52.2642 95.1876 52.2212 95.4776 52.1353C95.7677 52.0493 96.0076 51.9043 96.1974 51.7002V49.9438H94.3873V49.106H97.2232V51.9741Z" fill="#0E1723"/>
</svg>
